<svg width="155" height="69" viewBox="0 0 155 69" fill="none" xmlns="http://www.w3.org/2000/svg">
<g clip-path="url(#clip0_613_236)">
<path d="M34.3596 44.1339C34.3596 44.9318 34.089 45.7298 33.5479 46.5278C33.0068 47.3258 32.2982 48.0852 31.4093 48.8317C30.5332 49.5782 29.5283 50.2861 28.4075 50.9811C27.2866 51.6761 26.1271 52.3196 24.9289 52.9117C23.7308 53.5037 22.5455 54.0572 21.3602 54.5591C20.175 55.0611 19.1056 55.5116 18.1265 55.9106C18.2811 56.2066 18.4744 56.6442 18.7191 57.2491C18.9639 57.8412 19.286 58.4976 19.6725 59.1926C20.059 59.9005 20.5228 60.6213 21.051 61.3678C21.5793 62.1143 22.1719 62.7835 22.8418 63.4013C23.5118 64.0191 24.2719 64.5082 25.1093 64.8943C25.9467 65.2805 26.8614 65.4735 27.8277 65.4735C28.2786 65.4735 28.6651 65.4349 28.9743 65.3577C29.2964 65.2805 29.5412 65.2032 29.7344 65.1132C29.9277 65.0102 30.0952 64.8944 30.2369 64.7528C29.9792 65.5508 29.567 66.2458 29.0001 66.8636C28.5492 67.3913 27.9179 67.8804 27.1191 68.3308C26.3203 68.7813 25.2768 69.013 24.0013 69.013C23.0608 69.013 22.2105 68.8071 21.4247 68.3952C20.6388 67.9833 19.9302 67.4428 19.286 66.7606C18.6547 66.0785 18.075 65.332 17.5725 64.4954C17.0701 63.6588 16.632 62.8222 16.2584 61.9727C15.8848 61.1232 15.5885 60.3124 15.3566 59.5273C15.1247 58.7421 14.9443 58.0729 14.7897 57.5194C14.3774 58.3431 13.9652 59.1926 13.5529 60.0678C13.1406 60.943 12.7799 61.7796 12.4578 62.5905C12.1357 63.4013 11.8781 64.135 11.6719 64.8043C11.4658 65.4607 11.3627 66.0012 11.3627 66.4002C11.3627 66.7477 11.4014 67.0309 11.4787 67.2754C11.556 67.52 11.6204 67.7002 11.6719 67.8546C11.7235 67.9962 11.7492 68.0992 11.7235 68.1506C11.6977 68.2021 11.5818 68.2279 11.3627 68.2279C10.9505 68.2279 10.4609 68.1764 9.90691 68.0734C9.35293 67.9705 8.79894 67.7774 8.2836 67.52C7.75539 67.2497 7.30447 66.9151 6.93085 66.4903C6.55723 66.0656 6.36398 65.525 6.36398 64.8557C6.36398 64.3538 6.54435 63.6201 6.8922 62.6548C7.25293 61.6895 7.71674 60.5827 8.29649 59.3599C8.87624 58.1243 9.52041 56.8373 10.229 55.4858C10.9376 54.1344 11.6462 52.8216 12.329 51.5474C13.0247 50.2732 13.6817 49.102 14.3001 48.0079C14.9185 46.9268 15.3952 46.0645 15.7302 45.4209C16.2584 44.417 16.4388 43.5804 16.2971 42.9111C16.1425 42.2419 15.6916 41.9201 14.9443 41.9201C13.8235 41.9201 12.5995 42.3062 11.2983 43.0913C9.98421 43.8764 8.77317 44.816 7.65232 45.91C6.53146 47.0169 5.59098 48.1495 4.84374 49.3336C4.0965 50.5177 3.72289 51.5088 3.72289 52.2939C3.0143 52.2424 2.3959 52.1008 1.86768 51.8563C1.37811 51.6761 0.940075 51.3929 0.553573 51.0197C0.167072 50.6464 -0.0390625 50.1316 -0.0390625 49.4623C-0.0390625 48.7416 0.334556 47.8406 1.08179 46.7337C1.82903 45.6269 2.80817 44.5586 4.03209 43.5289C5.24313 42.4993 6.60876 41.5983 8.129 40.8389C9.64924 40.0796 11.1566 39.7063 12.6511 39.7063C15.2277 39.7063 17.186 40.1825 18.513 41.135C19.84 42.0874 20.5099 43.2844 20.5099 44.713C20.5099 45.0606 20.4198 45.5239 20.2265 46.1288C20.0333 46.7209 19.7756 47.403 19.4406 48.1624C19.1056 48.9218 18.7191 49.7326 18.294 50.6078C17.8688 51.483 17.405 52.384 16.9155 53.3107C17.856 52.8602 19.0155 52.2424 20.394 51.4573C21.7725 50.6722 23.1124 49.7584 24.4136 48.7158C25.7019 47.6733 26.8099 46.5149 27.7246 45.2536C28.6394 43.9923 29.1032 42.6795 29.1032 41.3023C29.1032 40.9805 29.0516 40.7102 28.9614 40.4914C28.8713 40.2726 28.7682 40.0924 28.6522 39.9509C28.4976 39.7964 28.3302 39.6548 28.1498 39.5519C29.3093 39.5004 30.34 39.6162 31.2418 39.9123C32.0277 40.1825 32.7363 40.633 33.3804 41.2637C34.0117 41.8943 34.3338 42.8725 34.3338 44.1725L34.3596 44.1339Z" fill="#FFE6DC"/>
<path d="M52.1528 55.3572C52.1528 55.7562 51.9338 56.2324 51.4829 56.7858C51.032 57.3393 50.4136 57.8799 49.6277 58.3947C48.8418 58.9095 47.9142 59.3857 46.8449 59.8105C45.7755 60.2352 44.6289 60.5184 43.3921 60.6857C42.9412 61.4579 42.413 62.1787 41.8203 62.8737C41.2148 63.5687 40.5707 64.1736 39.8878 64.7013C39.1921 65.229 38.4578 65.6538 37.6719 65.9498C36.886 66.2587 36.0486 66.4131 35.1468 66.4131C34.5412 66.4131 33.8584 66.233 33.0725 65.8726C32.2866 65.5122 31.5652 65.0231 30.9081 64.3796C30.2511 63.7489 29.7229 62.9767 29.3106 62.0886C28.8983 61.2005 28.7437 60.2223 28.8597 59.1669C28.9756 57.764 29.3106 56.3354 29.8646 54.8938C30.4314 53.4523 31.14 52.1395 32.029 50.9811C32.905 49.8099 33.9228 48.8575 35.0952 48.111C36.2547 47.3645 37.5044 46.9912 38.8572 46.9912C39.9007 46.9912 40.8541 47.1457 41.6915 47.4546C42.5289 47.7635 43.2633 48.1625 43.8817 48.6644C44.5001 49.1664 44.9897 49.7584 45.3375 50.4406C45.6982 51.1227 45.9044 51.8306 45.9817 52.5642C46.059 53.2335 45.9817 54.0572 45.7627 55.074C45.5436 56.0908 45.1829 57.1462 44.6933 58.2531C45.7755 57.9699 46.7805 57.468 47.6952 56.7601C48.6099 56.0651 49.2541 55.0998 49.6277 53.8771C50.1173 53.9028 50.5424 53.98 50.916 54.1216C51.2123 54.2246 51.4958 54.379 51.7534 54.5592C52.0111 54.7394 52.1528 55.0097 52.1528 55.3572ZM34.2965 64.2251C34.8633 64.2251 35.4817 63.8647 36.1774 63.1311C36.8731 62.3975 37.5559 61.4837 38.2259 60.3639C37.6204 60.2095 37.2467 59.9907 37.105 59.7075C36.9504 59.4243 36.9504 59.1669 37.0793 58.9353C37.2081 58.7036 37.4529 58.5105 37.8136 58.3818C38.1744 58.2531 38.5737 58.2402 39.0247 58.3432C39.1793 58.3947 39.2823 58.4204 39.3596 58.4204C39.9265 57.3264 40.4032 56.2195 40.8154 55.0998C41.2277 53.9672 41.5111 52.9504 41.6915 52.0365C41.859 51.1227 41.8719 50.3762 41.7173 49.7842C41.5627 49.205 41.2148 48.909 40.648 48.909C40.0811 48.909 39.4369 49.2822 38.6768 50.0416C37.9296 50.801 37.1952 51.7405 36.4866 52.886C35.778 54.0315 35.1339 55.2542 34.5541 56.567C33.9744 57.8799 33.5492 59.1026 33.2658 60.2481C32.9823 61.3807 32.905 62.3331 33.0468 63.0925C33.1756 63.8519 33.6007 64.2251 34.3093 64.2251H34.2965Z" fill="#FFE6DC"/>
<path d="M69.5051 53.4523C70.2523 53.4523 70.8836 53.6325 71.4118 53.9929C71.94 54.3533 72.159 54.675 72.0817 54.971C72.0044 55.1255 71.7854 55.5245 71.4376 56.168C71.0768 56.7987 70.6259 57.5581 70.0591 58.4204C69.4922 59.2827 68.8609 60.1966 68.1523 61.149C67.4437 62.1014 66.6965 62.9895 65.9364 63.7875C65.1634 64.5984 64.4161 65.2676 63.6689 65.7953C62.9217 66.323 62.2131 66.5933 61.5302 66.5933C60.8217 66.5933 60.1775 66.4131 59.5977 66.0527C59.018 65.6924 58.5155 65.2419 58.1162 64.7013C57.7039 64.1608 57.3818 63.5816 57.1628 62.9766C56.9438 62.3717 56.8278 61.8054 56.8278 61.3035C56.8278 60.8787 56.9824 60.2867 57.2787 59.5273C57.575 58.7679 57.9487 57.9442 58.3996 57.0432C58.8505 56.1423 59.3401 55.2285 59.8554 54.3018C60.3836 53.3751 60.8603 52.5256 61.3112 51.7534C60.3707 52.6801 59.3401 53.7998 58.2192 55.1126C57.0984 56.4254 56.0419 57.7897 55.0757 59.2055C54.0965 60.6213 53.2978 62.0242 52.6665 63.3885C52.0352 64.7528 51.7131 65.9498 51.7131 66.9923C50.2186 66.9923 48.9818 66.6834 48.0027 66.0785C47.0236 65.4736 46.5469 64.4954 46.5469 63.1697C46.5469 62.243 46.6757 61.2005 46.9463 60.0421C47.2039 58.8838 47.5518 57.7254 47.9898 56.5413C48.415 55.3572 48.9045 54.2117 49.4456 53.0791C49.9867 51.9464 50.5536 50.9554 51.1334 50.0802C51.7131 49.205 52.28 48.4971 52.8211 47.9694C53.3622 47.4417 53.8389 47.1714 54.2511 47.1714C54.7407 47.1714 55.1659 47.2872 55.5395 47.5318C55.9131 47.7763 56.2481 48.0337 56.5444 48.3297C56.918 48.6773 57.2401 49.0634 57.4978 49.4752C56.7892 50.1703 56.0935 50.994 55.4235 51.9593C54.7536 52.9246 54.1352 53.9543 53.5941 55.0225C53.053 56.0908 52.5892 57.1719 52.2156 58.2402C51.8419 59.3085 51.5843 60.2867 51.4297 61.1619C52.2542 59.7332 53.2591 58.2016 54.4573 56.567C55.6554 54.9324 56.8665 53.4266 58.1033 52.0365C59.3401 50.6465 60.4996 49.4881 61.5818 48.5614C62.664 47.6347 63.5143 47.1714 64.1069 47.1714C64.4032 47.1714 64.7253 47.2615 65.0603 47.4417C65.3953 47.6219 65.7045 47.8921 65.9879 48.2397C66.2713 48.5872 66.5032 48.9862 66.6836 49.4495C66.8769 49.9128 66.967 50.4148 66.967 50.9425C66.967 51.2128 66.7738 51.7148 66.4002 52.4741C66.0266 53.2335 65.5756 54.0958 65.0474 55.0869C64.5192 56.0651 63.9652 57.0947 63.3597 58.163C62.7542 59.2313 62.2517 60.2223 61.8395 61.1104C61.4272 61.9985 61.1437 62.7321 60.9634 63.2984C60.7959 63.8647 60.8732 64.1479 61.221 64.1479C61.5689 64.1479 61.9554 63.9291 62.4321 63.4915C62.8959 63.0539 63.4112 62.5004 63.9523 61.8183C64.4934 61.1361 65.0474 60.3896 65.6143 59.553C66.1812 58.7164 66.7094 57.9056 67.2118 57.1333C67.7143 56.3482 68.1652 55.6275 68.5646 54.9582C68.9511 54.3018 69.2603 53.7869 69.4922 53.4523H69.5051Z" fill="#FFE6DC"/>
<path d="M18.4096 3.23047C20.7286 3.23047 22.4936 3.46214 23.7176 3.92549C24.9286 4.38883 25.8047 4.89079 26.3329 5.41849C26.9255 6.08777 27.2476 6.8214 27.2863 7.64513C26.9126 7.64513 26.6034 7.58078 26.3587 7.46494C26.1139 7.3491 25.8433 7.2204 25.547 7.09169C25.2507 6.96298 24.8899 6.83427 24.4777 6.71844C24.0654 6.6026 23.4857 6.53825 22.7384 6.53825C20.6771 6.53825 18.7832 6.93724 17.0697 7.73523C15.3434 8.53321 13.8102 9.52426 12.4704 10.7212C11.1176 11.9182 9.98387 13.2053 9.04338 14.5953C8.1029 15.9854 7.38143 17.2853 6.85321 18.4694C6.32499 19.6664 6.01579 20.6574 5.89984 21.4554C5.78389 22.2534 5.89984 22.6524 6.23481 22.6524C6.64707 22.6524 7.26548 22.395 8.09001 21.893C8.91455 21.3911 9.84215 20.7218 10.8986 19.9109C11.9421 19.0872 13.0501 18.1605 14.2096 17.1309C15.3691 16.1012 16.5157 15.0587 17.6366 14.0033C18.7575 12.9479 19.801 11.9568 20.7544 11.0044C21.7078 10.052 22.5065 9.2411 23.1378 8.58469C23.7691 8.68766 24.336 8.86785 24.8255 9.09952C25.2378 9.30546 25.6114 9.61435 25.9464 10.0133C26.2814 10.4123 26.4488 10.9529 26.4488 11.6479C26.4488 12.8192 26.1912 14.1963 25.6887 15.8052C25.1863 17.414 24.4777 19.0743 23.5887 20.7733C22.6998 22.4722 21.6305 24.1712 20.4194 25.8443C19.2084 27.5175 17.8943 29.0105 16.49 30.3362C15.0857 31.6619 13.617 32.7302 12.0839 33.541C10.5507 34.3519 9.01762 34.7509 7.48449 34.7509C6.54401 34.7509 5.73235 34.6608 5.03665 34.4677C4.34095 34.2875 3.73543 34.0301 3.20721 33.7084C2.67899 33.3866 2.22807 33.0262 1.85446 32.6144C1.48084 32.2025 1.18452 31.7906 0.952618 31.3659C0.424399 30.3877 0.128082 29.2551 0.0507812 27.9809C1.77715 28.8561 3.55506 29.2937 5.3845 29.2937C7.11088 29.2937 8.74707 28.9076 10.3188 28.1353C11.8906 27.3631 13.3464 26.3463 14.6734 25.0592C16.0004 23.7722 17.1986 22.2792 18.2679 20.5673C19.3372 18.8555 20.2004 17.0794 20.8832 15.2131C18.7832 17.0922 16.8378 18.7654 15.047 20.2198C14.2612 20.8634 13.4753 21.4812 12.6894 22.0861C11.9035 22.691 11.1691 23.2316 10.4734 23.6949C9.77774 24.1583 9.15934 24.5315 8.59247 24.8276C8.0256 25.1236 7.60045 25.2652 7.30413 25.2652C6.69861 25.2652 6.04156 25.1493 5.3072 24.9305C4.57285 24.7117 3.90291 24.3385 3.28451 23.8365C2.66611 23.3346 2.15077 22.691 1.7385 21.9059C1.32624 21.1208 1.1201 20.1812 1.1201 19.0615C1.1201 18.315 1.31335 17.414 1.71274 16.3586C2.11212 15.3032 2.66611 14.1706 3.40046 12.9994C4.13481 11.8152 5.02377 10.644 6.06732 9.48564C7.11088 8.31441 8.27038 7.28475 9.54584 6.35806C10.8213 5.44424 12.1998 4.69773 13.6943 4.10568C15.1888 3.5265 16.7605 3.23047 18.4096 3.23047Z" fill="#FFE6DC"/>
<path d="M39.9128 17.9032C39.8355 18.0577 39.6294 18.4695 39.2944 19.1388C38.9595 19.8081 38.5214 20.5803 38.0061 21.4684C37.4779 22.3565 36.8981 23.2961 36.2411 24.2871C35.584 25.2782 34.9012 26.192 34.1926 27.0286C33.484 27.8652 32.7497 28.5602 32.0024 29.1008C31.2552 29.6413 30.5595 29.9116 29.9282 29.9116C29.181 29.9116 28.511 29.7057 27.9313 29.2809C27.3515 28.8562 26.862 28.3414 26.4497 27.7236C26.0374 27.1187 25.7282 26.488 25.5221 25.8316C25.316 25.1881 25.2129 24.6475 25.2129 24.2227C25.2129 23.9267 25.3288 23.3733 25.5736 22.5496C25.8184 21.7258 26.1405 20.7991 26.5528 19.7695C26.965 18.7398 27.4288 17.6458 27.9571 16.5132C28.4853 15.3677 29.0135 14.3252 29.5546 13.3727C30.0957 12.4203 30.6368 11.6352 31.1779 11.0302C31.719 10.4253 32.2215 10.1164 32.6595 10.1164C33.1491 10.1164 33.5742 10.2323 33.9478 10.4768C34.3214 10.7214 34.6564 10.9788 34.9527 11.2748C35.3263 11.6223 35.6484 12.0084 35.9061 12.4332C35.3006 12.9866 34.6951 13.746 34.0767 14.6855C33.4583 15.6251 32.8785 16.6419 32.3374 17.7359C31.7963 18.817 31.2938 19.9239 30.8172 21.0308C30.3534 22.1506 29.9797 23.1545 29.7221 24.0554C29.4644 24.9564 29.2969 25.69 29.2454 26.2692C29.1939 26.8355 29.2969 27.1187 29.5546 27.1187C29.8896 27.1187 30.2889 26.8999 30.7399 26.4623C31.1908 26.0247 31.6675 25.4712 32.1699 24.7891C32.6724 24.1069 33.1877 23.3604 33.7159 22.5238C34.2441 21.6872 34.7337 20.8764 35.1975 20.0784C35.6613 19.2804 36.0865 18.5596 36.4601 17.8903C36.8337 17.2211 37.13 16.732 37.3619 16.4231C38.1092 16.4231 38.7404 16.6033 39.2429 16.9637C39.7453 17.324 39.9644 17.6458 39.8871 17.9418L39.9128 17.9032ZM37.8386 8.86796C36.9754 8.765 36.2153 8.58481 35.5325 8.35314C34.9656 8.1472 34.4503 7.85118 33.9865 7.50367C33.5227 7.14329 33.3037 6.69281 33.3423 6.1265C33.381 5.75325 33.5613 5.21268 33.8705 4.51766C34.1926 3.82264 34.6049 3.11475 35.1073 2.4326C35.6098 1.73758 36.1638 1.1584 36.7693 0.656438C37.3619 0.16735 37.9546 -0.0514524 38.5085 3.04854e-05C39.0625 0.0515134 39.5779 0.180221 40.0288 0.399023C40.4797 0.617826 40.8533 0.849499 41.1496 1.11978C41.446 1.39007 41.665 1.63461 41.7938 1.87916C41.9226 2.1237 41.9871 2.30389 41.9871 2.4326C41.9871 2.53556 41.768 2.80585 41.3429 3.24345C40.9177 3.68106 40.4411 4.19589 39.9386 4.80081C39.4361 5.39287 38.9595 6.04928 38.5343 6.77004C38.1092 7.4908 37.8644 8.18582 37.8386 8.88084V8.86796Z" fill="#FFE6DC"/>
<path d="M57.1516 16.3973C57.8988 16.3973 58.5301 16.5775 59.0583 16.9379C59.5865 17.2983 59.8055 17.62 59.7282 17.916C59.6509 18.0705 59.4319 18.4695 59.0841 19.113C58.7233 19.7566 58.2724 20.5031 57.7055 21.3654C57.1387 22.2277 56.5074 23.1416 55.7988 24.094C55.0902 25.0464 54.343 25.9345 53.5829 26.7454C52.8098 27.5562 52.0626 28.2255 51.3154 28.7532C50.5681 29.2809 49.8596 29.5512 49.1767 29.5512C48.4681 29.5512 47.824 29.371 47.2442 29.0106C46.6645 28.6502 46.162 28.1998 45.7626 27.6592C45.3504 27.1186 45.0283 26.5394 44.8093 25.9216C44.5902 25.3167 44.4743 24.7504 44.4743 24.2484C44.4743 23.8237 44.6289 23.2317 44.9252 22.4723C45.2215 21.7129 45.5952 20.8892 46.0461 19.9882C46.497 19.0873 46.9866 18.1735 47.5019 17.2468C48.0301 16.3201 48.5068 15.4706 48.9577 14.6984C48.0172 15.6251 46.9866 16.7448 45.8657 18.0576C44.7448 19.3704 43.6884 20.7347 42.7222 22.1505C41.743 23.5663 40.9443 24.9563 40.313 26.3206C39.6817 27.6849 39.3596 28.8819 39.3596 29.9244C37.8651 29.9244 36.6283 29.6155 35.6492 29.0106C34.67 28.4057 34.1934 27.4404 34.1934 26.1018C34.1934 25.1751 34.3222 24.1326 34.5927 22.9742C34.8504 21.8159 35.1983 20.6575 35.6363 19.4734C36.0614 18.2893 36.551 17.1438 37.0921 16.0112C37.6332 14.8786 38.2001 13.8875 38.7798 13.0123C39.3596 12.1371 39.9265 11.4421 40.4676 10.9015C41.0087 10.3738 41.4854 10.1035 41.8976 10.1035C42.3872 10.1035 42.8123 10.2194 43.186 10.4639C43.5596 10.7084 43.8945 10.9659 44.1909 11.2619C44.5645 11.6094 44.8866 11.9955 45.1442 12.4202C44.4356 13.1153 43.7399 13.939 43.07 14.9043C42.4001 15.8696 41.7817 16.8864 41.2406 17.9675C40.6995 19.0487 40.2357 20.1169 39.862 21.1852C39.4884 22.2535 39.2308 23.2317 39.0762 24.1069C39.9007 22.6782 40.9056 21.1466 42.1038 19.512C43.3019 17.8774 44.5129 16.3716 45.7498 14.9815C46.9866 13.5915 48.1461 12.4331 49.2283 11.4936C50.3105 10.5669 51.1608 10.1035 51.7534 10.1035C52.0497 10.1035 52.3718 10.1936 52.7068 10.3867C53.0417 10.5797 53.351 10.8371 53.6344 11.1847C53.9178 11.5322 54.1497 11.9312 54.3301 12.3945C54.5233 12.8579 54.6135 13.3598 54.6135 13.8875C54.6135 14.1578 54.4203 14.6598 54.0467 15.4191C53.673 16.1785 53.2221 17.0408 52.6939 18.019C52.1657 18.9972 51.6117 20.0268 51.0062 21.0951C50.4007 22.1763 49.8982 23.1544 49.4859 24.0425C49.0737 24.9306 48.7902 25.6642 48.6099 26.2305C48.4424 26.7969 48.5197 27.08 48.8675 27.08C49.2154 27.08 49.6019 26.8612 50.0786 26.4236C50.5424 25.986 51.0577 25.4326 51.5988 24.7504C52.1399 24.0683 52.6939 23.3218 53.2608 22.4852C53.8276 21.6486 54.3559 20.8377 54.8583 20.0655C55.3608 19.2803 55.8117 18.5596 56.2111 17.9032C56.5976 17.2339 56.9068 16.7319 57.1387 16.3844L57.1516 16.3973Z" fill="#FFE6DC"/>
<path d="M76.6297 16.3973C76.8488 16.3973 77.1322 16.4359 77.4672 16.5003C77.8021 16.5646 78.1113 16.6676 78.3948 16.822C78.6782 16.9765 78.8972 17.1309 79.0647 17.324C79.2322 17.5042 79.258 17.7101 79.1549 17.9161C78.3304 19.8209 77.3899 21.5327 76.3463 23.0257C75.3028 24.5187 74.169 25.8444 72.9451 27.0028C71.7341 28.1612 70.4586 29.1651 69.1316 30.0017C67.8046 30.8511 66.4519 31.559 65.0605 32.1511C64.3519 33.4768 63.6175 34.7252 62.8703 35.8965C62.1231 37.0677 61.3372 38.0716 60.5126 38.934C59.6881 39.7963 58.8249 40.4784 57.936 40.9675C57.047 41.4566 56.1065 41.7012 55.1274 41.7012C53.8519 41.7012 52.8084 41.4695 51.9838 41.019C51.1593 40.5685 50.5151 40.0022 50.0513 39.3072C49.5875 38.6122 49.2397 37.8786 49.0078 37.0806C48.6342 35.7034 48.5053 34.146 48.6213 32.4214C50.863 32.4214 52.9501 32.3313 54.8568 32.1639C56.7636 31.9966 58.5672 31.7263 60.2421 31.3531C60.8347 30.3234 61.4274 29.2294 62.0071 28.0839C62.5869 26.9513 63.1408 25.7801 63.6691 24.5831C62.6899 25.8573 61.7494 26.9256 60.8347 27.8008C59.92 28.676 59.1212 29.1136 58.4513 29.1136C57.9617 29.1136 57.4593 29.0106 56.9311 28.8176C56.4028 28.6245 55.9262 28.3156 55.501 27.9037C55.0758 27.4919 54.7151 26.977 54.4317 26.3464C54.1482 25.7286 54.0065 24.995 54.0065 24.1455C54.0065 23.5406 54.1225 22.7683 54.3415 21.8545C54.5605 20.9407 54.8955 19.9625 55.3206 18.9071C55.7458 17.8646 56.2869 16.8092 56.9182 15.7666C57.5495 14.7241 58.2838 13.7845 59.1083 12.9479C59.9329 12.1114 60.8347 11.4292 61.8267 10.9015C62.8188 10.3738 63.8752 10.1035 64.9961 10.1035C65.4856 10.1035 65.9752 10.1679 66.4519 10.2837C66.9414 10.3995 67.3924 10.554 67.8046 10.7471C68.2169 10.9272 68.6034 11.1332 68.9899 11.3648C69.3635 11.5836 69.6856 11.7896 69.9433 11.9826C70.3555 11.4035 70.7549 10.9401 71.1543 10.6055C71.5408 10.2708 71.9273 10.1035 72.3009 10.1035C72.7519 10.1035 73.177 10.2194 73.5635 10.4639C73.95 10.7084 74.2979 10.9659 74.6071 11.2619C74.9807 11.6094 75.3156 11.9955 75.612 12.4202C74.9034 13.0509 74.1948 13.9647 73.4733 15.1488C72.7647 16.333 72.0433 17.6586 71.3089 19.1259C70.5746 20.5932 69.8402 22.1763 69.093 23.8366C68.3457 25.5098 67.5598 27.183 66.7353 28.8433C68.874 27.6206 70.7163 25.9989 72.288 23.991C73.8598 21.9703 75.3028 19.4477 76.6169 16.3973H76.6297ZM52.6538 38.3548C53.6587 38.3548 54.6507 37.9815 55.6041 37.2221C56.5574 36.4628 57.485 35.446 58.3869 34.1718C56.9311 34.4678 55.5396 34.6609 54.1998 34.7638C52.8728 34.8668 51.6489 34.9183 50.528 34.9183C50.528 35.1628 50.5667 35.4717 50.644 35.8579C50.7213 36.244 50.8372 36.6172 51.0047 36.9905C51.1722 37.3637 51.3912 37.6855 51.6489 37.9429C51.9065 38.2132 52.2544 38.3419 52.6538 38.3419V38.3548ZM59.5077 26.2177C59.701 26.2177 59.9973 25.986 60.4096 25.5227C60.8218 25.0593 61.3114 24.4544 61.8654 23.7079C62.4323 22.9614 63.0249 22.1248 63.6562 21.1981C64.2875 20.2714 64.9188 19.3447 65.5372 18.418C66.1556 17.4913 66.7353 16.6032 67.2764 15.7538C67.8175 14.9043 68.2813 14.1964 68.6549 13.643C68.4617 13.3727 68.204 13.141 67.869 12.9351C67.5341 12.7163 67.0445 12.6133 66.4132 12.6133C65.8464 12.6133 65.2537 12.9479 64.6224 13.6301C63.9911 14.3122 63.3599 15.1488 62.7415 16.1528C62.1231 17.1567 61.5433 18.2507 61.0022 19.4219C60.4611 20.5932 60.0231 21.6743 59.6881 22.6782C59.3531 23.6821 59.1599 24.5316 59.0955 25.2009C59.0439 25.883 59.1856 26.2177 59.5206 26.2177H59.5077Z" fill="#FFE6DC"/>
<path d="M89.7709 37.0547C90.2605 37.0547 90.6856 37.1705 91.0593 37.4151C91.4329 37.6596 91.7678 37.917 92.0642 38.2131C92.4378 38.5606 92.7599 38.9467 93.0175 39.3714C92.077 40.4011 91.085 41.7396 90.0157 43.3742C88.9464 45.0088 87.9157 46.7463 86.8979 48.5869C85.893 50.4274 84.9268 52.2808 84.0378 54.1213C83.136 55.9618 82.3887 57.635 81.7961 59.128C81.1906 60.621 80.8041 61.8437 80.6108 62.7704C80.4176 63.6971 80.4949 64.1604 80.8299 64.1604C81.2421 64.1604 81.693 63.9416 82.1826 63.504C82.6722 63.0664 83.1746 62.513 83.7029 61.8309C84.2311 61.1487 84.7464 60.4022 85.2489 59.5656C85.7513 58.729 86.228 57.9181 86.6789 57.1459C87.1298 56.3608 87.5163 55.64 87.8642 54.9707C88.1991 54.3143 88.4568 53.7995 88.6501 53.4649C89.3973 53.4649 90.0286 53.6451 90.531 54.0054C91.0335 54.3658 91.2525 54.6876 91.1752 54.9836C91.0979 55.1381 90.8918 55.5371 90.5568 56.1806C90.2218 56.8241 89.7838 57.5706 89.2685 58.433C88.7403 59.2953 88.1605 60.2091 87.5034 61.1616C86.8464 62.114 86.1636 63.0021 85.455 63.8001C84.7464 64.6109 84.012 65.2802 83.2648 65.8079C82.5176 66.3356 81.8219 66.6059 81.1906 66.6059C80.4434 66.6059 79.7734 66.4128 79.1937 66.0267C78.6139 65.6406 78.1115 65.1772 77.7121 64.6367C77.2998 64.0961 76.9906 63.5169 76.7845 62.912C76.5783 62.3071 76.4753 61.7794 76.4753 61.3546C75.4317 62.7061 74.4268 63.8516 73.4734 64.7911C72.5201 65.7307 71.6827 66.2069 70.9741 66.2069C70.4845 66.2069 69.982 66.1039 69.4538 65.9109C68.9256 65.7178 68.4489 65.4089 68.0238 64.997C67.5986 64.5852 67.2379 64.0704 66.9545 63.4397C66.671 62.8219 66.5293 62.0754 66.5293 61.2259C66.5293 60.621 66.6453 59.8616 66.8643 58.9349C67.0833 58.0082 67.4183 57.0429 67.8434 55.9875C68.2686 54.945 68.8097 53.8896 69.4409 52.8471C70.0722 51.8045 70.8066 50.8521 71.6311 50.0155C72.4557 49.1789 73.3575 48.4968 74.3495 47.9691C75.3415 47.4414 76.398 47.1711 77.5188 47.1711C78.3047 47.1711 79.0648 47.3127 79.7863 47.6087C80.5207 47.9047 81.1648 48.2136 81.7188 48.5611C82.5047 47.081 83.2906 45.6395 84.0765 44.2623C84.8624 42.8851 85.6225 41.6624 86.3439 40.607C87.0783 39.5516 87.7353 38.6893 88.3409 38.0457C88.9335 37.4022 89.4102 37.0676 89.7452 37.0676L89.7709 37.0547ZM79.0519 54.0441C79.3483 53.4391 79.6446 52.8213 79.928 52.1907C80.2115 51.5729 80.5207 50.9422 80.8556 50.2987C80.6624 50.1185 80.4176 49.964 80.0955 49.8353C79.7734 49.7195 79.3998 49.6551 78.9489 49.6551C78.382 49.6551 77.7894 49.9898 77.1581 50.6719C76.5268 51.3541 75.8955 52.1907 75.2771 53.1946C74.6587 54.1985 74.079 55.2925 73.5379 56.4509C72.9968 57.6221 72.5587 58.7033 72.2238 59.7201C71.8888 60.7368 71.6955 61.5734 71.6311 62.2427C71.5796 62.9249 71.7213 63.2595 72.0563 63.2595C72.2495 63.2595 72.5845 62.9635 73.0998 62.3843C73.6023 61.8051 74.1949 61.0586 74.8648 60.1577C75.5348 59.2567 76.2434 58.2657 76.9648 57.1716C77.6992 56.0905 78.3949 55.0351 79.0648 54.0312L79.0519 54.0441Z" fill="#FFE6DC"/>
<path d="M100.438 54.9579C100.361 55.1124 100.155 55.5242 99.8198 56.1935C99.4849 56.8499 99.0468 57.635 98.5315 58.5231C98.0033 59.4112 97.4235 60.3507 96.7665 61.3547C96.1094 62.3457 95.4266 63.2595 94.718 64.0961C94.0094 64.9327 93.2751 65.6149 92.5278 66.1683C91.7806 66.7089 91.0849 66.9792 90.4536 66.9792C89.7064 66.9792 89.0364 66.7732 88.4567 66.3485C87.8769 65.9238 87.3874 65.4089 86.9751 64.7911C86.5628 64.1862 86.2536 63.5556 86.0475 62.8991C85.8413 62.2556 85.7383 61.715 85.7383 61.2903C85.7383 60.9943 85.8542 60.4408 86.099 59.6171C86.3438 58.7934 86.6659 57.8667 87.0781 56.837C87.4904 55.8074 87.9542 54.7134 88.4824 53.5679C89.0107 52.4352 89.5389 51.3798 90.08 50.4274C90.6211 49.475 91.1622 48.6899 91.7033 48.0849C92.2444 47.48 92.7468 47.1711 93.1849 47.1711C93.6744 47.1711 94.0996 47.2869 94.4732 47.5315C94.8468 47.776 95.1818 48.0335 95.4781 48.3295C95.8517 48.677 96.1738 49.0631 96.4315 49.475C95.826 50.0284 95.2204 50.7878 94.602 51.7273C93.9836 52.6669 93.4039 53.6837 92.8628 54.7777C92.3217 55.8717 91.8192 56.9657 91.3426 58.0726C90.8787 59.1924 90.5051 60.1963 90.2475 61.0972C89.9898 61.9982 89.8223 62.7318 89.7708 63.2981C89.7192 63.8645 89.8223 64.1476 90.08 64.1476C90.4149 64.1476 90.8143 63.9288 91.2652 63.4912C91.7162 63.0536 92.1928 62.5002 92.6953 61.818C93.1978 61.1359 93.7131 60.3894 94.2413 59.5528C94.7695 58.7162 95.2591 57.9053 95.7229 57.1073C96.1867 56.3093 96.6119 55.5757 96.9855 54.9193C97.3591 54.2629 97.6554 53.7609 97.8873 53.452C98.6345 53.452 99.2658 53.6322 99.7683 53.9926C100.271 54.353 100.49 54.6747 100.412 54.9708L100.438 54.9579ZM98.364 45.9227C97.5008 45.8197 96.7407 45.6395 96.0579 45.4078C95.491 45.2019 94.9757 44.9187 94.5119 44.5584C94.0481 44.198 93.829 43.7475 93.8677 43.1812C93.9063 42.8079 94.0867 42.2674 94.3959 41.5723C94.718 40.8773 95.1303 40.1694 95.6327 39.4873C96.1352 38.8051 96.6891 38.2131 97.2947 37.7111C97.8873 37.222 98.4799 37.0032 99.0339 37.0547C99.6008 37.1062 100.103 37.2349 100.554 37.4537C101.005 37.6596 101.379 37.9042 101.675 38.1745C101.971 38.4448 102.19 38.6893 102.319 38.9338C102.448 39.1784 102.512 39.3586 102.512 39.4873C102.512 39.5903 102.293 39.8605 101.868 40.2981C101.443 40.7357 100.966 41.2506 100.464 41.8555C99.9615 42.4476 99.4848 43.104 99.0597 43.8247C98.6345 44.5326 98.3898 45.2405 98.364 45.9355V45.9227Z" fill="#FFE6DC"/>
<path d="M115.423 44.5327C114.637 44.507 113.812 44.4812 112.949 44.4555C112.202 44.4298 111.364 44.404 110.45 44.3911C109.535 44.3911 108.582 44.3911 107.615 44.4169C106.791 45.7426 105.953 47.1455 105.116 48.6385C104.279 50.1186 103.493 51.5988 102.784 53.0789C102.076 54.5462 101.431 55.9491 100.852 57.2747C100.272 58.6004 99.8081 59.7717 99.4473 60.7885C99.0866 61.8052 98.8805 62.629 98.8032 63.2339C98.7259 63.8388 98.8418 64.1477 99.1381 64.1477C99.5504 64.1477 100.001 63.9289 100.491 63.4913C100.98 63.0537 101.47 62.5003 101.972 61.8181C102.475 61.136 102.99 60.3895 103.518 59.5529C104.047 58.7163 104.523 57.9054 104.949 57.1332C105.374 56.3481 105.76 55.6273 106.095 54.958C106.43 54.3016 106.688 53.7868 106.881 53.4521C107.628 53.4521 108.26 53.6323 108.788 53.9927C109.316 54.3531 109.522 54.6749 109.406 54.9709C109.368 55.1253 109.187 55.5372 108.839 56.2065C108.504 56.8629 108.066 57.648 107.551 58.5361C107.023 59.4242 106.43 60.3637 105.76 61.3676C105.09 62.3587 104.395 63.2725 103.686 64.1091C102.977 64.9457 102.256 65.6278 101.522 66.1813C100.787 66.7219 100.104 66.9921 99.4731 66.9921C98.7259 66.9921 98.0559 66.7862 97.4504 66.3615C96.8449 65.9368 96.3424 65.4219 95.9302 64.8041C95.5179 64.1992 95.2087 63.5685 95.0026 62.9121C94.7964 62.2686 94.6934 61.728 94.6934 61.3033C94.6934 60.7756 94.9124 59.9004 95.3633 58.6777C95.8142 57.4549 96.394 56.0649 97.1026 54.4947C97.8111 52.9373 98.6228 51.277 99.5117 49.5266C100.414 47.7761 101.303 46.1158 102.204 44.5585C101.084 44.5842 99.9756 44.6228 98.8933 44.6614C97.8111 44.7 96.7805 44.7644 95.8013 44.8416C95.6854 44.5199 95.6467 44.2238 95.6854 43.9278C95.724 43.6833 95.8013 43.4516 95.943 43.2328C96.0719 43.014 96.3424 42.8595 96.7547 42.7694C97.051 42.7179 97.824 42.6536 99.0608 42.5892C100.298 42.5249 101.779 42.4605 103.493 42.4091C104.472 40.8517 105.348 39.5646 106.16 38.5736C106.958 37.5825 107.577 37.0806 107.989 37.0806C108.479 37.0806 108.917 37.1964 109.303 37.4409C109.702 37.6855 110.037 37.9429 110.347 38.2389C110.682 38.5864 111.004 38.9726 111.3 39.3973C110.591 40.1953 109.818 41.1606 108.994 42.3061H112.279C113.387 42.3061 114.547 42.3576 115.783 42.4605C116.08 42.7051 116.273 42.9367 116.35 43.1813C116.428 43.3872 116.415 43.6189 116.325 43.8634C116.234 44.0951 115.925 44.3397 115.397 44.5713L115.423 44.5327Z" fill="#FFE6DC"/>
<path d="M128.395 55.3572C128.395 55.7562 128.176 56.2324 127.725 56.7858C127.274 57.3393 126.656 57.8799 125.87 58.3947C125.084 58.9095 124.156 59.3857 123.087 59.8105C122.018 60.2352 120.871 60.5184 119.634 60.6857C119.183 61.4579 118.655 62.1787 118.063 62.8737C117.457 63.5687 116.813 64.1736 116.13 64.7013C115.434 65.229 114.7 65.6538 113.914 65.9498C113.128 66.2587 112.291 66.4131 111.389 66.4131C110.783 66.4131 110.101 66.233 109.315 65.8726C108.529 65.5122 107.807 65.0231 107.15 64.3796C106.493 63.7489 105.965 62.9767 105.553 62.0886C105.14 61.2005 104.986 60.2223 105.102 59.1669C105.218 57.764 105.553 56.3354 106.107 54.8938C106.674 53.4523 107.382 52.1395 108.271 50.9811C109.147 49.8099 110.165 48.8575 111.337 48.111C112.497 47.3645 113.747 46.9912 115.099 46.9912C116.143 46.9912 117.096 47.1457 117.934 47.4546C118.771 47.7635 119.505 48.1625 120.124 48.6644C120.742 49.1664 121.232 49.7584 121.58 50.4406C121.94 51.1227 122.147 51.8306 122.224 52.5642C122.301 53.2335 122.224 54.0572 122.005 55.074C121.786 56.0908 121.425 57.1462 120.936 58.2531C122.018 57.9699 123.023 57.468 123.937 56.7601C124.852 56.0651 125.496 55.0998 125.87 53.8771C126.359 53.9028 126.785 53.98 127.158 54.1216C127.455 54.2246 127.738 54.379 127.996 54.5592C128.253 54.7394 128.395 55.0097 128.395 55.3572ZM110.539 64.2251C111.106 64.2251 111.724 63.8647 112.42 63.1311C113.115 62.3975 113.798 61.4837 114.468 60.3639C113.863 60.2095 113.489 59.9907 113.347 59.7075C113.193 59.4243 113.193 59.1669 113.321 58.9353C113.45 58.7036 113.695 58.5105 114.056 58.3818C114.417 58.2531 114.816 58.2402 115.267 58.3432C115.421 58.3947 115.525 58.4204 115.602 58.4204C116.169 57.3264 116.645 56.2195 117.058 55.0998C117.47 53.9672 117.753 52.9504 117.934 52.0365C118.101 51.1227 118.114 50.3762 117.959 49.7842C117.805 49.205 117.457 48.909 116.89 48.909C116.323 48.909 115.679 49.2822 114.919 50.0416C114.172 50.801 113.437 51.7405 112.729 52.886C112.02 54.0315 111.376 55.2542 110.796 56.567C110.217 57.8799 109.791 59.1026 109.508 60.2481C109.225 61.3807 109.147 62.3331 109.289 63.0925C109.418 63.8519 109.843 64.2251 110.552 64.2251H110.539Z" fill="#FFE6DC"/>
<path d="M141.254 53.4524C142.001 53.4524 142.632 53.6326 143.135 53.9929C143.637 54.3533 143.856 54.6751 143.779 54.9711C143.701 55.1256 143.482 55.5245 143.135 56.1681C142.774 56.7988 142.323 57.5581 141.756 58.4205C141.189 59.2828 140.558 60.1966 139.849 61.1491C139.141 62.1015 138.406 62.9896 137.659 63.7876C136.912 64.5984 136.165 65.2677 135.417 65.7954C134.67 66.3231 133.962 66.5934 133.279 66.5934C132.57 66.5934 131.926 66.4132 131.346 66.0528C130.767 65.6924 130.264 65.242 129.826 64.7014C129.401 64.1608 129.066 63.5816 128.847 62.9767C128.628 62.3718 128.512 61.8055 128.512 61.3035C128.512 60.7243 128.808 59.9263 129.414 58.9224C130.006 57.9185 130.663 56.8502 131.346 55.7176C132.042 54.585 132.686 53.491 133.279 52.4356C133.871 51.3802 134.181 50.4921 134.181 49.7713C134.181 49.3209 134 48.8961 133.652 48.4843C133.292 48.0724 132.918 47.6219 132.506 47.1071C132.094 48.3041 131.565 49.5525 130.934 50.8653C130.303 52.1782 129.517 53.7226 128.576 55.4988C127.868 55.5245 127.34 55.4345 127.005 55.2414C126.67 55.0483 126.438 54.8167 126.335 54.5464C126.219 54.2246 126.206 53.8642 126.283 53.4781C127.262 51.7019 128.074 50.0674 128.731 48.5872C129.388 47.1071 129.916 45.8071 130.328 44.6874C130.818 43.4132 131.205 42.242 131.514 41.1866C131.81 40.2341 132.287 39.5777 132.918 39.2173C133.549 38.8569 134.194 38.6768 134.825 38.6768C135.353 38.6768 135.804 38.7926 136.203 39.0114C136.603 39.2431 136.899 39.4876 137.131 39.7708C137.35 40.0411 137.505 40.3242 137.582 40.6074C137.659 40.8905 137.595 41.0836 137.414 41.1866C137.221 41.2895 136.989 41.4826 136.719 41.74C136.435 42.0103 136.165 42.3063 135.907 42.6538C135.649 43.0013 135.417 43.3746 135.237 43.7864C135.044 44.1983 134.954 44.5973 134.954 44.9963C134.954 45.7685 135.147 46.3606 135.546 46.7853C135.933 47.2101 136.384 47.5962 136.86 47.9566C137.35 48.3169 137.788 48.7159 138.174 49.1535C138.561 49.5911 138.767 50.1961 138.767 50.9683C138.767 51.4188 138.574 52.0623 138.2 52.8989C137.827 53.7355 137.363 54.6493 136.822 55.6275C136.281 56.6057 135.714 57.6096 135.134 58.6135C134.554 59.6174 134.052 60.5313 133.614 61.355C133.189 62.1787 132.879 62.848 132.712 63.3886C132.544 63.9163 132.622 64.1866 132.97 64.1866C133.317 64.1866 133.704 63.9678 134.181 63.5301C134.644 63.0925 135.16 62.5391 135.701 61.857C136.242 61.1748 136.809 60.4283 137.389 59.5917C137.968 58.7551 138.509 57.9442 139.012 57.172C139.514 56.3869 139.965 55.6661 140.365 54.9968C140.751 54.3404 141.06 53.8256 141.292 53.491L141.254 53.4524Z" fill="#FFE6DC"/>
<path d="M152.926 54.9579C152.849 55.1124 152.643 55.5242 152.308 56.1935C151.973 56.8499 151.535 57.635 151.02 58.5231C150.492 59.4112 149.912 60.3507 149.255 61.3547C148.598 62.3457 147.915 63.2595 147.206 64.0961C146.498 64.9327 145.763 65.6149 145.016 66.1683C144.269 66.7089 143.573 66.9792 142.942 66.9792C142.195 66.9792 141.525 66.7732 140.945 66.3485C140.365 65.9238 139.876 65.4089 139.463 64.7911C139.051 64.1862 138.742 63.5556 138.536 62.8991C138.33 62.2556 138.227 61.715 138.227 61.2903C138.227 60.9943 138.343 60.4408 138.587 59.6171C138.832 58.7934 139.154 57.8667 139.566 56.837C139.979 55.8074 140.443 54.7134 140.971 53.5679C141.499 52.4352 142.027 51.3798 142.568 50.4274C143.109 49.475 143.65 48.6899 144.192 48.0849C144.733 47.48 145.235 47.1711 145.673 47.1711C146.163 47.1711 146.588 47.2869 146.961 47.5315C147.335 47.776 147.67 48.0335 147.966 48.3295C148.34 48.677 148.662 49.0631 148.92 49.475C148.314 50.0284 147.709 50.7878 147.09 51.7273C146.472 52.6669 145.892 53.6837 145.351 54.7777C144.81 55.8717 144.308 56.9657 143.831 58.0726C143.367 59.1924 142.993 60.1963 142.736 61.0972C142.478 61.9982 142.311 62.7318 142.259 63.2981C142.208 63.8645 142.311 64.1476 142.568 64.1476C142.903 64.1476 143.303 63.9288 143.754 63.4912C144.204 63.0536 144.681 62.5002 145.184 61.818C145.686 61.1359 146.201 60.3894 146.73 59.5528C147.258 58.7162 147.747 57.9053 148.211 57.1073C148.675 56.3093 149.1 55.5757 149.474 54.9193C149.847 54.2629 150.144 53.7609 150.376 53.452C151.123 53.452 151.754 53.6322 152.257 53.9926C152.759 54.353 152.978 54.6747 152.901 54.9708L152.926 54.9579ZM150.852 45.9227C149.989 45.8197 149.229 45.6395 148.546 45.4078C147.979 45.2019 147.464 44.9187 147 44.5584C146.536 44.198 146.317 43.7475 146.356 43.1812C146.395 42.8079 146.575 42.2674 146.884 41.5723C147.206 40.8773 147.619 40.1694 148.121 39.4873C148.623 38.8051 149.177 38.2131 149.783 37.7111C150.376 37.222 150.968 37.0032 151.522 37.0547C152.089 37.1062 152.592 37.2349 153.042 37.4537C153.493 37.6596 153.867 37.9042 154.163 38.1745C154.46 38.4448 154.679 38.6893 154.807 38.9338C154.936 39.1784 155.001 39.3586 155.001 39.4873C155.001 39.5903 154.782 39.8605 154.357 40.2981C153.931 40.7357 153.455 41.2506 152.952 41.8555C152.45 42.4476 151.973 43.104 151.548 43.8247C151.123 44.5326 150.878 45.2405 150.852 45.9355V45.9227Z" fill="#FFE6DC"/>
<path d="M92.129 16.3973C92.8763 16.3973 93.5076 16.5775 94.01 16.9379C94.5125 17.2983 94.7315 17.62 94.6542 17.9161C94.6155 18.019 94.4223 18.3794 94.0615 18.9843C93.7008 19.5892 93.237 20.3229 92.6572 21.1852C92.0775 22.0476 91.3947 22.9614 90.6088 23.9267C89.8229 24.892 88.9726 25.7929 88.0579 26.6295C87.1432 27.4661 86.1769 28.1612 85.172 28.7017C84.1671 29.2423 83.1364 29.5126 82.08 29.5126C81.1395 29.5126 80.1733 29.3453 79.1555 29.0106C78.1506 28.676 77.223 28.2126 76.3984 27.6206C75.5739 27.0285 74.9039 26.2949 74.3757 25.4326C73.8475 24.5702 73.5898 23.6049 73.5898 22.5495C73.5898 21.7773 73.7444 20.9407 74.0408 20.0269C74.3371 19.113 74.7365 18.1863 75.226 17.2596C75.7156 16.333 76.2825 15.432 76.9395 14.5697C77.5966 13.7073 78.2794 12.9479 78.988 12.2787C79.6966 11.6223 80.4309 11.0817 81.1782 10.6956C81.9254 10.2966 82.6211 10.1035 83.2524 10.1035C85.2751 10.1035 86.7695 10.4253 87.7487 11.0817C88.7278 11.7252 89.3076 12.5361 89.5137 13.5014C89.7198 14.4667 89.6297 15.5221 89.2303 16.6418C88.8438 17.7745 88.2898 18.817 87.5683 19.7823C86.8597 20.7476 86.0481 21.5585 85.1205 22.202C84.2058 22.8584 83.3554 23.1802 82.5696 23.1802C81.7064 23.1802 80.9849 23.0386 80.4052 22.7683C79.8254 22.4852 79.3487 22.1891 78.9751 21.8674C78.7818 22.6396 78.6788 23.3604 78.6401 24.0554C78.6015 24.7504 78.6659 25.3553 78.8334 25.8702C79.0009 26.385 79.2714 26.7969 79.645 27.1058C80.0187 27.4146 80.5469 27.5691 81.2168 27.5691C81.9254 27.5691 82.6597 27.3503 83.407 26.9384C84.1542 26.5137 84.8886 25.9603 85.6229 25.291C86.3573 24.6088 87.053 23.8623 87.7229 23.0257C88.3928 22.1891 89.0113 21.3654 89.5781 20.5417C90.145 19.718 90.6346 18.9328 91.0597 18.1992C91.4849 17.4527 91.8327 16.8607 92.1033 16.4102L92.129 16.3973ZM85.507 12.0599C85.0174 12.0599 84.4892 12.3173 83.9094 12.8321C83.3297 13.3469 82.7499 14.0162 82.1702 14.8142C81.5904 15.6251 81.0622 16.5518 80.5726 17.5814C80.0831 18.6111 79.6708 19.6536 79.3358 20.6833C79.7481 20.8377 80.1346 20.8634 80.5211 20.7605C81.0107 20.6833 81.5131 20.413 82.0413 19.9496C82.5696 19.4863 83.072 18.9328 83.5616 18.3022C84.0512 17.6715 84.4763 16.9765 84.8499 16.23C85.2235 15.4835 85.5199 14.8142 85.7518 14.1964C85.9837 13.5786 86.0738 13.0767 86.061 12.6648C86.0481 12.2529 85.8677 12.047 85.5327 12.047L85.507 12.0599Z" fill="#FFE6DC"/>
<path d="M107.009 16.3975C107.757 16.3975 108.388 16.5777 108.89 16.9381C109.393 17.2985 109.612 17.6203 109.535 17.9163C109.457 18.0707 109.238 18.4697 108.89 19.1133C108.53 19.7568 108.079 20.5033 107.512 21.3656C106.945 22.228 106.314 23.1418 105.605 24.0942C104.897 25.0467 104.162 25.9347 103.415 26.7456C102.668 27.5565 101.921 28.2257 101.173 28.7534C100.426 29.2811 99.7175 29.5514 99.0346 29.5514C98.326 29.5514 97.6819 29.3712 97.1021 29.0109C96.5224 28.6505 96.0199 28.2 95.5819 27.6594C95.1567 27.1189 94.8218 26.5397 94.6027 25.9219C94.3837 25.317 94.2678 24.7506 94.2678 24.2487C94.2678 23.6695 94.5641 22.8715 95.1696 21.8547C95.7623 20.8508 96.4193 19.7825 97.1021 18.6499C97.7978 17.5173 98.442 16.4361 99.0346 15.3679C99.6273 14.3125 99.9365 13.4244 99.9365 12.7036C99.9365 12.2532 99.7561 11.8156 99.4083 11.4037C99.0475 10.9918 98.6739 10.5414 98.2616 10.0394C97.8494 11.2364 97.3211 12.4848 96.6899 13.7976C96.0586 15.1105 95.2727 16.655 94.3322 18.4311C93.6236 18.4569 93.0954 18.3796 92.7604 18.1737C92.4255 17.9806 92.1936 17.749 92.0905 17.4787C91.9745 17.1569 91.9617 16.7965 92.039 16.3975C93.0181 14.6214 93.8297 12.9868 94.4868 11.5067C95.1438 10.0265 95.6721 8.72658 96.0843 7.60682C96.5739 6.33262 96.9604 5.17426 97.2696 4.10598C97.5659 3.15355 98.0426 2.49714 98.6739 2.13676C99.3052 1.77638 99.9494 1.59619 100.581 1.59619C101.109 1.59619 101.56 1.71203 101.959 1.93083C102.359 2.1625 102.655 2.40705 102.887 2.6902C103.119 2.97336 103.26 3.24365 103.338 3.5268C103.415 3.80996 103.351 4.00302 103.17 4.10598C102.977 4.20895 102.745 4.40201 102.474 4.65943C102.191 4.92971 101.921 5.22574 101.663 5.57325C101.405 5.92076 101.173 6.29401 100.993 6.70587C100.8 7.11774 100.709 7.51673 100.709 7.91572C100.709 8.68797 100.903 9.28002 101.302 9.70475C101.689 10.1295 102.14 10.5156 102.616 10.876C103.106 11.2364 103.544 11.6354 103.93 12.073C104.317 12.5106 104.523 13.1155 104.523 13.8877C104.523 14.3382 104.33 14.9818 103.956 15.8184C103.582 16.655 103.119 17.5688 102.578 18.5469C102.036 19.5251 101.47 20.529 100.89 21.533C100.31 22.5369 99.8076 23.4507 99.3696 24.2744C98.9444 25.0982 98.6352 25.7803 98.4678 26.308C98.3003 26.8357 98.3776 27.106 98.7254 27.106C99.0733 27.106 99.4598 26.8872 99.9365 26.4496C100.4 26.012 100.916 25.4585 101.457 24.7764C101.998 24.0942 102.565 23.3477 103.144 22.5111C103.724 21.6745 104.265 20.8637 104.768 20.0914C105.27 19.3192 105.721 18.5856 106.12 17.9292C106.507 17.2599 106.816 16.7579 107.048 16.4104L107.009 16.3975Z" fill="#FFE6DC"/>
<g clip-path="url(#clip1_613_236)">
<path d="M142.632 17.5933C139.703 17.718 136.985 18.2666 134.416 18.4037C131.86 18.5658 129.464 18.3164 127.516 17.4188C126.759 17.1569 126.151 16.6458 125.518 16.2842C124.922 15.8354 124.376 15.3367 123.917 14.8255C123.693 14.5761 123.47 14.3143 123.296 14.065C123.185 13.9029 123.185 13.8904 123.16 13.8406C123.135 13.7907 123.123 13.7408 123.098 13.6909C123.036 13.5039 123.023 13.3419 123.135 13.2172C123.234 13.08 123.408 13.08 123.507 13.08C123.569 13.08 123.607 13.08 123.656 13.0925C123.706 13.0925 123.656 13.105 123.78 13.0925L124.091 13.0676C125.704 12.9678 127.168 12.9554 128.223 12.9304C129.278 12.9055 130.023 12.9055 130.47 12.8681C131.512 12.7933 133.126 12.706 135.211 12.1948C136.265 11.9205 137.209 11.6213 138.363 11.0977C138.934 10.8234 139.592 10.4618 140.212 9.85091C140.845 9.22753 141.279 8.40467 141.478 7.60674C141.863 5.99842 141.515 4.52724 140.808 3.36775C140.088 2.18332 138.946 1.44773 137.891 1.14851C136.824 0.849287 135.943 0.949028 135.322 1.13604C134.702 1.32306 134.329 1.58488 134.156 1.79683C133.982 2.02124 134.379 1.99631 135.26 2.03371C135.695 2.07112 136.265 2.14592 136.898 2.40774C137.519 2.66956 138.202 3.1184 138.661 3.85399C139.12 4.57711 139.294 5.52465 139.095 6.38491C138.996 6.80881 138.797 7.20778 138.537 7.507C138.276 7.79376 137.904 8.00571 137.42 8.19272C136.464 8.54181 135.248 8.80363 134.069 8.96571C132.877 9.12779 131.624 9.1652 130.246 9.1652C128.621 9.1652 126.957 9.22753 125.319 9.31481L124.053 9.40208L123.408 9.46442L123.048 9.51429L122.527 9.60156C121.137 9.85091 119.834 10.4369 119.325 11.6837C119.002 12.5689 119.064 13.5039 119.474 14.4265C119.834 15.3242 120.628 16.3216 120.976 16.7081C121.894 17.7305 122.862 18.6157 124.029 19.3263C126.846 21.1466 129.886 21.583 132.232 21.583C134.615 21.583 136.514 21.2837 137.991 21.0468C140.212 20.6853 142.098 20.3237 143.662 20.2614C145.226 20.1866 146.38 20.3985 147.323 20.7975C148.204 21.1965 149.123 21.9819 149.743 22.6801C150.364 23.3908 150.736 24.0266 150.848 24.5627C151.022 25.1612 150.873 25.797 150.563 26.3705C150.252 26.9316 149.88 27.4053 149.594 27.7918C150.227 27.4926 150.823 27.0936 151.307 26.5575C151.791 26.0339 152.089 25.3232 152.126 24.5877C152.176 23.104 151.357 21.7949 150.476 20.6853C150.029 20.1242 149.52 19.6131 148.912 19.1892C148.366 18.6905 147.658 18.4286 146.988 18.117C145.586 17.6307 144.097 17.5434 142.62 17.5559L142.632 17.5933Z" fill="#FFE6DC"/>
<path d="M149.529 16.2174C149.992 14.7751 149.614 13.1862 149.09 12.0373C148.554 10.8395 147.921 9.92282 147.373 9.15281C146.812 8.40724 146.41 7.97945 146.227 7.85722C146.008 7.69833 145.667 7.515 145.228 7.31944C144.79 7.11165 144.29 6.96498 143.754 6.84276C143.218 6.73276 142.719 6.68387 142.231 6.72053C141.756 6.7572 141.415 6.89165 141.196 7.12388C140.989 7.3561 141.257 7.79611 141.902 8.48057C142.572 9.18947 143.328 9.97171 144.156 10.8517C144.985 11.7562 145.74 12.6851 146.24 13.5773C146.739 14.4818 146.8 15.0318 146.824 15.3252C146.861 15.5574 146.837 16.5841 146.971 17.1341C147.032 17.4274 147.105 17.6719 147.178 17.8674C147.214 17.9408 147.263 18.0385 147.312 18.0752C147.348 18.0874 147.312 18.0508 147.409 18.1241C147.507 18.1852 147.592 18.2463 147.677 18.3197C147.86 18.4785 147.909 18.4785 148.006 18.6008C148.104 18.7597 148.104 18.7108 148.116 18.7963C148.116 18.7841 148.116 18.7963 148.14 18.7108C148.165 18.6252 148.213 18.5886 148.299 18.4785C148.359 18.4052 148.323 18.4541 148.299 18.4785C148.274 18.4908 148.25 18.503 148.225 18.5152C148.018 18.5886 147.763 18.5763 147.519 18.5763C147.592 18.7352 147.665 18.8819 147.799 19.0163C147.909 19.163 148.213 19.2363 148.372 19.0774C148.664 18.8086 148.774 18.4785 148.908 18.173C149.151 17.5374 149.334 16.8896 149.529 16.2296V16.2174Z" fill="#FFE6DC"/>
<path d="M138.947 26.5204C135.955 26.153 133.236 25.6877 130.877 25.0142C128.493 24.3653 126.593 23.5693 125.116 22.7244C123.638 21.8918 122.819 21.255 122.521 21.0836C122.148 20.8509 121.639 20.5571 121.242 20.1775C120.845 19.8101 120.497 19.3081 120.311 18.5611C120.112 17.8264 120.1 16.9815 120.149 16.1733C120.199 15.3774 120.224 14.7897 120.075 14.459C120 14.2999 119.777 14.3611 119.429 14.6917C119.082 15.0346 118.597 15.6346 118.188 16.6509C117.778 17.6427 117.505 18.9407 117.828 20.3856C118.101 21.8428 119.28 23.2754 120.584 24.1816C123.142 26.0183 126.109 27.2306 129.139 27.9775C132.18 28.7245 134.49 28.9694 136.091 29.1163C138.488 29.3 140.449 29.251 141.989 29.0306C143.516 28.8224 144.733 28.5286 145.639 28.2347C146.657 27.8796 147.377 27.4755 147.824 27.0102C144.919 26.9979 141.952 26.9 138.959 26.5204H138.947Z" fill="#FFE6DC"/>
<path d="M127.69 27.4971C125.847 27.1441 124.091 26.9859 122.524 26.8642C120.957 26.7424 119.603 26.6329 118.875 26.3408C118.186 26 118.411 25.8661 118.349 25.8418C118.324 25.8296 118.299 25.8418 118.248 25.7809C118.186 25.7322 118.136 25.6957 118.111 25.7079C118.035 25.7079 117.885 25.6592 117.81 25.4644C117.709 25.294 117.922 24.7828 118.123 24.3812C118.336 23.9552 118.499 23.59 118.474 23.2858C118.487 22.9936 117.847 22.7867 116.568 23.3831C115.979 23.6752 115.177 24.296 114.913 25.3306C114.763 25.8296 114.788 26.4016 114.963 26.9859C115.151 27.5701 115.39 28.057 115.866 28.5438C116.794 29.5784 118.223 29.8827 119.239 30.0044C120.305 30.1139 121.233 30.1139 122.135 30.1139C123.928 30.1018 125.157 30.1504 126.035 30.1748C127.326 30.1991 128.379 30.1991 129.257 30.0774C130.122 29.9557 130.862 29.834 131.426 29.6514C132.078 29.4323 132.605 29.1646 132.993 28.7994C131.288 28.3126 129.545 27.8622 127.702 27.5092L127.69 27.4971Z" fill="#FFE6DC"/>
<path d="M133.003 8.55103C133.694 8.35864 134.349 8.10612 134.958 7.78146C135.567 7.45679 136.105 7.05998 136.527 6.65114C136.96 6.25433 137.159 5.91764 137.217 5.79739C137.264 5.62905 137.299 5.38856 137.299 5.06389C137.299 4.75125 137.229 4.40254 137.1 4.06585C136.971 3.72916 136.772 3.45259 136.538 3.22413C136.304 2.99566 136.023 2.89946 135.742 2.87541C135.45 2.86339 135.192 3.1159 134.899 3.53677C134.607 3.95763 134.279 4.36646 133.893 4.73923C133.506 5.09997 133.132 5.36451 132.757 5.58095C132.382 5.7974 132.078 5.92967 131.891 6.06194C131.622 6.25433 131.422 6.49482 131.329 6.83151C131.223 7.1682 131.142 7.49287 131.106 7.82956C131.071 8.22637 131.071 8.64723 131.106 9.10417C131.703 8.91177 132.324 8.74343 133.003 8.56306V8.55103Z" fill="#FFE6DC"/>
</g>
</g>
<defs>
<clipPath id="clip0_613_236">
<rect width="155" height="69" fill="white"/>
</clipPath>
<clipPath id="clip1_613_236">
<rect width="44.9691" height="34.9792" fill="white" transform="translate(114.814 -4.7915)"/>
</clipPath>
</defs>
</svg>
