<svg width="297" height="133" viewBox="0 0 297 133" fill="none" xmlns="http://www.w3.org/2000/svg">
<g clip-path="url(#clip0_490_1246)">
<path d="M35.2775 6.22702C39.721 6.22702 43.103 6.67358 45.4482 7.5667C47.7687 8.45981 49.4474 9.42736 50.4595 10.4445C51.5951 11.7346 52.2122 13.1487 52.2863 14.7364C51.5704 14.7364 50.9779 14.6124 50.5089 14.3891C50.0398 14.1658 49.5214 13.9178 48.9537 13.6697C48.3859 13.4216 47.6947 13.1735 46.9047 12.9502C46.1147 12.7269 45.0039 12.6029 43.5721 12.6029C39.6223 12.6029 35.9934 13.372 32.7101 14.9101C29.4022 16.4482 26.4645 18.3585 23.8971 20.6657C21.3051 22.973 19.1327 25.4538 17.3306 28.1332C15.5285 30.8125 14.1461 33.3182 13.1339 35.6006C12.1218 37.9079 11.5293 39.8181 11.3072 41.3563C11.085 42.8944 11.3072 43.6635 11.949 43.6635C12.739 43.6635 13.9239 43.1673 15.5038 42.1998C17.0837 41.2322 18.8611 39.9422 20.8854 38.3792C22.885 36.7915 25.008 35.0052 27.2298 33.0205C29.4515 31.0358 31.6486 29.0263 33.7963 26.992C35.944 24.9577 37.9436 23.0474 39.7704 21.2115C41.5972 19.3757 43.1277 17.8127 44.3373 16.5475C45.5469 16.746 46.6331 17.0933 47.5712 17.5398C48.3612 17.9368 49.0771 18.5322 49.7189 19.3013C50.3608 20.0703 50.6817 21.1123 50.6817 22.452C50.6817 24.7096 50.188 27.3641 49.2252 30.4652C48.2624 33.5663 46.9047 36.7667 45.2013 40.0414C43.498 43.3162 41.449 46.5909 39.1285 49.8161C36.808 53.0412 34.29 55.9191 31.5992 58.4744C28.9084 61.0297 26.0942 63.0888 23.1565 64.6518C20.2189 66.2147 17.2812 66.9838 14.3436 66.9838C12.5415 66.9838 10.9862 66.8101 9.65318 66.438C8.32012 66.0907 7.15987 65.5945 6.14774 64.9743C5.1356 64.354 4.27158 63.6594 3.55568 62.8655C2.83978 62.0716 2.272 61.2778 1.82765 60.4591C0.81551 58.5736 0.247727 56.3904 0.0996094 53.9344C3.40756 55.6213 6.81426 56.4649 10.3197 56.4649C13.6277 56.4649 16.7628 55.7206 19.7745 54.2321C22.7863 52.7435 25.5758 50.7836 28.1185 48.3027C30.6612 45.8219 32.957 42.944 35.0059 39.6445C37.0549 36.3449 38.7089 32.9213 40.0172 29.324C35.9934 32.9461 32.2658 36.1712 28.8344 38.9746C27.3285 40.2151 25.8227 41.4059 24.3168 42.5719C22.8109 43.7379 21.4038 44.7799 20.0708 45.673C18.7377 46.5661 17.5528 47.2856 16.4666 47.8562C15.3804 48.4268 14.5657 48.6997 13.998 48.6997C12.8377 48.6997 11.5787 48.4764 10.1716 48.0547C8.76447 47.6329 7.48079 46.9135 6.29585 45.9459C5.11091 44.9784 4.12346 43.7379 3.33351 42.2246C2.54355 40.7113 2.14857 38.9002 2.14857 36.7419C2.14857 35.3029 2.51886 33.5663 3.28413 31.532C4.04941 29.4977 5.11091 27.3145 6.51803 25.0569C7.92514 22.7745 9.62849 20.5169 11.6281 18.2841C13.6277 16.0265 15.8494 14.0418 18.2934 12.2556C20.7373 10.4941 23.3787 9.05522 26.2423 7.91402C29.1059 6.79762 32.1176 6.22702 35.2775 6.22702Z" fill="#73366A"/>
<path d="M76.4775 34.509C76.3294 34.8067 75.9344 35.6006 75.2926 36.8907C74.6508 38.1807 73.8114 39.6693 72.824 41.3811C71.8118 43.0929 70.701 44.9039 69.442 46.8142C68.183 48.7245 66.8746 50.4859 65.5168 52.0985C64.1591 53.711 62.752 55.0507 61.3202 56.0927C59.8884 57.1347 58.5553 57.6556 57.3457 57.6556C55.9139 57.6556 54.6302 57.2587 53.5193 56.44C52.4085 55.6213 51.4704 54.629 50.6804 53.4381C49.8905 52.2721 49.298 51.0565 48.903 49.7913C48.508 48.5508 48.3105 47.5088 48.3105 46.6902C48.3105 46.1195 48.5327 45.0528 49.0018 43.465C49.4708 41.8772 50.088 40.091 50.8779 38.1063C51.6679 36.1216 52.5566 34.0129 53.5687 31.8297C54.5809 29.6217 55.593 27.6122 56.6298 25.7763C57.6666 23.9405 58.7035 22.4271 59.7403 21.2611C60.7771 20.0951 61.7399 19.4997 62.5792 19.4997C63.5173 19.4997 64.3319 19.723 65.0478 20.1944C65.7637 20.6657 66.4056 21.1619 66.9733 21.7325C67.6892 22.4023 68.3064 23.1466 68.8001 23.9653C67.6399 25.0321 66.4796 26.4958 65.2947 28.3068C64.1097 30.1179 62.9989 32.0778 61.962 34.1865C60.9252 36.2705 59.9624 38.404 59.0491 40.5376C58.1604 42.6959 57.4445 44.631 56.9507 46.3676C56.457 48.1043 56.1361 49.5184 56.0373 50.6348C55.9386 51.7263 56.1361 52.2721 56.6298 52.2721C57.2716 52.2721 58.0369 51.8504 58.9009 51.0069C59.765 50.1634 60.6783 49.0966 61.6411 47.7817C62.6039 46.4669 63.5913 45.028 64.6035 43.4154C65.6156 41.8028 66.5537 40.2399 67.4424 38.7017C68.3311 37.1636 69.1457 35.7743 69.8616 34.4842C70.5775 33.1942 71.1453 32.2514 71.5897 31.656C73.0215 31.656 74.2311 32.0033 75.1938 32.698C76.1566 33.3926 76.5763 34.0129 76.4282 34.5835L76.4775 34.509ZM72.5031 17.0933C70.8491 16.8948 69.3926 16.5475 68.0842 16.1009C66.998 15.704 66.0106 15.1334 65.1219 14.4635C64.2332 13.7689 63.8135 12.9006 63.8876 11.809C63.9616 11.0895 64.3072 10.0476 64.8997 8.70788C65.5168 7.3682 66.3068 6.00372 67.2696 4.68885C68.2323 3.34917 69.2938 2.23278 70.4541 1.26523C71.5897 0.3225 72.7252 -0.0992494 73.7867 -1.42157e-05C74.8482 0.099221 75.8357 0.347309 76.6997 0.769059C77.5637 1.19081 78.2796 1.63737 78.8474 2.15835C79.4152 2.67934 79.8349 3.1507 80.0817 3.62207C80.3286 4.09344 80.452 4.44076 80.452 4.68885C80.452 4.88732 80.0323 5.4083 79.2177 6.2518C78.4031 7.0953 77.4897 8.08766 76.5269 9.25367C75.5641 10.3949 74.6508 11.6601 73.8361 13.0494C73.0215 14.4387 72.5524 15.7784 72.5031 17.1181V17.0933Z" fill="#73366A"/>
<path d="M109.508 31.6064C110.94 31.6064 112.15 31.9537 113.162 32.6484C114.174 33.343 114.594 33.9633 114.446 34.5339C114.298 34.8316 113.878 35.6006 113.211 36.8411C112.52 38.0815 111.656 39.5204 110.57 41.1826C109.484 42.8448 108.274 44.6062 106.916 46.4421C105.559 48.2779 104.127 49.9897 102.67 51.5527C101.189 53.1157 99.7574 54.4057 98.3256 55.4229C96.8938 56.44 95.536 56.961 94.2277 56.961C92.8699 56.961 91.6356 56.6137 90.5247 55.919C89.4138 55.2244 88.4511 54.3561 87.6858 53.3141C86.8958 52.2722 86.2787 51.1558 85.859 49.9649C85.4394 48.7989 85.2172 47.7073 85.2172 46.7398C85.2172 45.9211 85.5134 44.7799 86.0812 43.3162C86.649 41.8525 87.3649 40.2647 88.2289 38.5281C89.0929 36.7915 90.031 35.03 91.0184 33.2438C92.0306 31.4576 92.944 29.8202 93.808 28.3317C92.0059 30.1179 90.031 32.2763 87.8833 34.8068C85.7356 37.3373 83.7113 39.967 81.8599 42.696C79.9837 45.4249 78.4532 48.1043 77.2435 50.734C76.0339 53.3637 75.4168 55.671 75.4168 57.6805C72.5531 57.6805 70.1833 57.0851 68.3071 55.919C66.431 54.753 65.5176 52.8924 65.5176 50.3123C65.5176 48.526 65.7644 46.5165 66.2828 44.2837C66.7766 42.0509 67.4431 39.8181 68.2824 37.5357C69.0971 35.2533 70.0352 33.0453 71.072 30.8622C72.1088 28.679 73.195 26.7687 74.3059 25.0817C75.4168 23.3947 76.5029 22.055 77.5398 21.0131C78.5766 19.9959 79.49 19.4749 80.2799 19.4749C81.218 19.4749 82.0327 19.6982 82.7486 20.1696C83.4645 20.6409 84.1063 21.1371 84.6741 21.7077C85.39 22.3775 86.0071 23.1218 86.5009 23.9405C85.1431 25.2802 83.8101 26.8679 82.5264 28.7286C81.2427 30.5893 80.0578 32.5492 79.0209 34.6331C77.9841 36.717 77.0954 38.7762 76.3795 40.8353C75.6636 42.8944 75.1699 44.7799 74.8737 46.4669C76.4536 43.7131 78.3791 40.7609 80.6749 37.6101C82.9707 34.4594 85.2912 31.5568 87.6611 28.8775C90.031 26.1981 92.2528 23.9653 94.3264 22.1543C96.4 20.368 98.0293 19.4749 99.1649 19.4749C99.7327 19.4749 100.35 19.6486 100.992 20.0207C101.634 20.3928 102.226 20.889 102.769 21.5589C103.312 22.2287 103.757 22.9978 104.102 23.8909C104.472 24.784 104.645 25.7515 104.645 26.7687C104.645 27.2897 104.275 28.2572 103.559 29.7209C102.843 31.1847 101.979 32.8469 100.967 34.7323C99.9549 36.6178 98.8934 38.6025 97.7331 40.6616C96.5728 42.7456 95.6101 44.631 94.8201 46.3428C94.0302 48.0547 93.4871 49.4688 93.1415 50.5603C92.8205 51.6519 92.9687 52.1977 93.6352 52.1977C94.3017 52.1977 95.0423 51.776 95.9557 50.9325C96.8444 50.089 97.8318 49.0222 98.8687 47.7073C99.9055 46.3925 100.967 44.9536 102.053 43.341C103.139 41.7284 104.152 40.1655 105.114 38.6769C106.077 37.1636 106.941 35.7743 107.706 34.509C108.447 33.219 109.039 32.2514 109.484 31.5816L109.508 31.6064Z" fill="#73366A"/>
<path d="M146.833 31.6064C147.252 31.6064 147.795 31.6808 148.437 31.8049C149.079 31.9289 149.672 32.1274 150.215 32.4251C150.758 32.7228 151.178 33.0205 151.498 33.3927C151.819 33.74 151.869 34.1369 151.671 34.5339C150.091 38.2056 148.289 41.5051 146.29 44.383C144.29 47.2608 142.118 49.8161 139.772 52.0489C137.452 54.2817 135.008 56.2168 132.465 57.8293C129.923 59.4667 127.331 60.8312 124.664 61.9724C123.307 64.5277 121.9 66.9342 120.468 69.1918C119.036 71.4494 117.53 73.3844 115.95 75.0466C114.37 76.7088 112.716 78.0237 111.013 78.9664C109.31 79.9092 107.508 80.3805 105.631 80.3805C103.187 80.3805 101.188 79.934 99.608 79.0657C98.028 78.1974 96.7937 77.1058 95.905 75.7661C95.0163 74.4264 94.3498 73.0123 93.9055 71.4742C93.1896 68.8196 92.9427 65.8178 93.1649 62.4934C97.4603 62.4934 101.459 62.3197 105.113 61.9972C108.767 61.6747 112.223 61.1537 115.432 60.4343C116.567 58.4495 117.703 56.3408 118.814 54.1328C119.925 51.9496 120.986 49.692 121.998 47.3848C120.122 49.8409 118.32 51.9 116.567 53.587C114.815 55.274 113.284 56.1175 112 56.1175C111.062 56.1175 110.1 55.919 109.087 55.5469C108.075 55.1748 107.162 54.5794 106.347 53.7855C105.533 52.9916 104.841 51.9993 104.298 50.7836C103.755 49.5928 103.484 48.1787 103.484 46.5413C103.484 45.3753 103.706 43.8868 104.126 42.1254C104.545 40.3639 105.187 38.4785 106.002 36.4441C106.816 34.4346 107.853 32.4003 109.063 30.3908C110.272 28.3813 111.68 26.5702 113.259 24.9577C114.839 23.3451 116.567 22.0302 118.468 21.0131C120.369 19.9959 122.393 19.4749 124.541 19.4749C125.479 19.4749 126.417 19.599 127.331 19.8222C128.269 20.0455 129.133 20.3432 129.923 20.7154C130.713 21.0627 131.453 21.4596 132.194 21.9062C132.91 22.3279 133.527 22.7249 134.021 23.097C134.811 21.9806 135.576 21.0875 136.341 20.4425C137.082 19.7974 137.822 19.4749 138.538 19.4749C139.402 19.4749 140.217 19.6982 140.957 20.1696C141.698 20.6409 142.365 21.1371 142.957 21.7077C143.673 22.3775 144.315 23.1218 144.883 23.9405C143.525 25.1561 142.167 26.9176 140.785 29.2C139.427 31.4824 138.044 34.0377 136.637 36.8659C135.23 39.6941 133.823 42.7456 132.391 45.9459C130.959 49.1711 129.454 52.3962 127.874 55.5965C131.972 53.2397 135.502 50.1138 138.513 46.2436C141.525 42.3486 144.29 37.4861 146.808 31.6064H146.833ZM100.892 73.9302C102.817 73.9302 104.718 73.2108 106.545 71.7471C108.372 70.2833 110.149 68.3234 111.877 65.8674C109.087 66.438 106.421 66.8101 103.854 67.0086C101.311 67.2071 98.9661 67.3063 96.8184 67.3063C96.8184 67.7777 96.8925 68.3731 97.0406 69.1173C97.1887 69.8616 97.4109 70.5811 97.7318 71.3005C98.0527 72.02 98.4724 72.6402 98.9661 73.1364C99.4599 73.6573 100.126 73.9054 100.892 73.9054V73.9302ZM114.025 50.5355C114.395 50.5355 114.963 50.089 115.753 49.1959C116.543 48.3027 117.481 47.1367 118.542 45.6978C119.629 44.2589 120.764 42.6463 121.974 40.8601C123.183 39.0739 124.393 37.2876 125.578 35.5014C126.763 33.7152 127.874 32.0034 128.911 30.366C129.947 28.7286 130.836 27.3641 131.552 26.2973C131.182 25.7764 130.688 25.3298 130.046 24.9329C129.404 24.5111 128.466 24.3126 127.257 24.3126C126.17 24.3126 125.035 24.9577 123.825 26.2725C122.616 27.5874 121.406 29.2 120.221 31.1351C119.036 33.0701 117.925 35.1789 116.888 37.4365C115.852 39.6941 115.012 41.778 114.37 43.7131C113.729 45.6482 113.358 47.2856 113.235 48.5756C113.136 49.8905 113.408 50.5355 114.049 50.5355H114.025Z" fill="#73366A"/>
<path d="M176.531 31.6064C177.963 31.6064 179.173 31.9537 180.135 32.6484C181.098 33.343 181.518 33.9633 181.37 34.5339C181.296 34.7323 180.925 35.427 180.234 36.593C179.543 37.759 178.654 39.1731 177.543 40.8353C176.433 42.4975 175.124 44.2589 173.618 46.1196C172.112 47.9802 170.483 49.7168 168.73 51.3294C166.978 52.942 165.126 54.2817 163.201 55.3236C161.275 56.3656 159.3 56.8866 157.276 56.8866C155.474 56.8866 153.622 56.5641 151.672 55.9191C149.747 55.274 147.969 54.3809 146.389 53.2397C144.809 52.0985 143.526 50.6844 142.514 49.0222C141.502 47.36 141.008 45.4994 141.008 43.465C141.008 41.9765 141.304 40.3639 141.872 38.6025C142.44 36.8411 143.205 35.0548 144.143 33.2686C145.081 31.4824 146.167 29.7458 147.426 28.0836C148.685 26.4214 149.994 24.9577 151.351 23.6676C152.709 22.4024 154.116 21.3604 155.548 20.6161C156.98 19.847 158.313 19.4749 159.522 19.4749C163.398 19.4749 166.262 20.0951 168.138 21.3604C170.014 22.6008 171.125 24.1638 171.52 26.0244C171.915 27.8851 171.742 29.9194 170.977 32.0778C170.236 34.261 169.175 36.2705 167.792 38.1311C166.435 39.9918 164.879 41.5548 163.102 42.7952C161.349 44.0604 159.72 44.6807 158.214 44.6807C156.56 44.6807 155.178 44.4078 154.067 43.8868C152.956 43.341 152.043 42.7704 151.327 42.1502C150.956 43.6387 150.759 45.028 150.685 46.3677C150.611 47.7073 150.734 48.8733 151.055 49.8657C151.376 50.8581 151.894 51.6519 152.61 52.2473C153.326 52.8428 154.338 53.1405 155.622 53.1405C156.98 53.1405 158.387 52.7187 159.819 51.9248C161.251 51.1061 162.658 50.0394 164.065 48.7493C165.472 47.4344 166.805 45.9955 168.089 44.383C169.372 42.7704 170.557 41.1826 171.643 39.5949C172.73 38.0071 173.668 36.4938 174.482 35.0797C175.297 33.6407 175.964 32.4995 176.482 31.6312L176.531 31.6064ZM163.843 23.2459C162.905 23.2459 161.892 23.742 160.781 24.7344C159.671 25.7267 158.56 27.0168 157.449 28.5549C156.338 30.1179 155.326 31.9041 154.388 33.8888C153.45 35.8735 152.66 37.883 152.018 39.8678C152.808 40.1655 153.548 40.2151 154.289 40.0166C155.227 39.8678 156.19 39.3468 157.202 38.4537C158.214 37.5605 159.177 36.4938 160.115 35.2781C161.053 34.0625 161.868 32.7228 162.584 31.2839C163.299 29.845 163.867 28.5549 164.312 27.3641C164.756 26.1733 164.929 25.2057 164.904 24.4119C164.879 23.618 164.534 23.221 163.892 23.221L163.843 23.2459Z" fill="#73366A"/>
<path d="M205.044 31.6064C206.476 31.6064 207.686 31.9537 208.649 32.6484C209.611 33.343 210.031 33.9633 209.883 34.5339C209.735 34.8316 209.315 35.6006 208.649 36.8411C207.957 38.0815 207.093 39.5204 206.007 41.1826C204.921 42.8448 203.711 44.6062 202.354 46.4421C200.996 48.2779 199.589 49.9897 198.157 51.5527C196.725 53.1157 195.293 54.4057 193.862 55.4229C192.43 56.44 191.072 56.961 189.764 56.961C188.406 56.961 187.172 56.6137 186.061 55.9191C184.95 55.2244 183.987 54.3561 183.148 53.3141C182.333 52.2722 181.691 51.1558 181.272 49.9649C180.852 48.7989 180.63 47.7073 180.63 46.7398C180.63 45.6234 181.197 44.0852 182.358 42.1254C183.493 40.1903 184.752 38.1311 186.061 35.948C187.394 33.7648 188.628 31.6808 189.764 29.6217C190.899 27.5874 191.492 25.8756 191.492 24.4863C191.492 23.618 191.146 22.7745 190.48 21.9806C189.788 21.1867 189.072 20.3184 188.282 19.3509C187.492 21.6581 186.48 24.0645 185.271 26.595C184.061 29.1255 182.555 32.1026 180.753 35.5262C179.395 35.5758 178.383 35.427 177.741 35.03C177.1 34.6579 176.655 34.2113 176.458 33.6904C176.236 33.0701 176.211 32.3755 176.359 31.6064C178.235 28.1828 179.79 25.0321 181.049 22.1791C182.308 19.3261 183.32 16.8204 184.11 14.662C185.049 12.2059 185.789 9.97314 186.382 7.91401C186.949 6.07816 187.863 4.81291 189.072 4.11826C190.282 3.42362 191.516 3.07629 192.726 3.07629C193.738 3.07629 194.602 3.29957 195.367 3.72132C196.133 4.16788 196.7 4.63925 197.145 5.18504C197.589 5.73084 197.861 6.25182 198.009 6.79761C198.157 7.34341 198.033 7.71554 197.688 7.91401C197.318 8.11248 196.873 8.48461 196.355 8.98079C195.812 9.50177 195.293 10.0724 194.8 10.7422C194.306 11.4121 193.862 12.1315 193.516 12.9254C193.146 13.7193 192.973 14.4883 192.973 15.2574C192.973 16.7459 193.343 17.8872 194.108 18.7058C194.849 19.5245 195.713 20.2688 196.626 20.9634C197.564 21.6581 198.404 22.4272 199.144 23.2707C199.885 24.1142 200.28 25.2802 200.28 26.7687C200.28 27.637 199.91 28.8775 199.194 30.49C198.478 32.1026 197.589 33.864 196.552 35.7495C195.515 37.635 194.429 39.57 193.318 41.5051C192.208 43.4402 191.245 45.2016 190.405 46.7894C189.591 48.3772 188.998 49.692 188.677 50.7092C188.356 51.7264 188.505 52.2473 189.171 52.2473C189.838 52.2473 190.578 51.8256 191.492 50.9821C192.38 50.1386 193.368 49.0718 194.405 47.757C195.441 46.4421 196.528 45.0032 197.638 43.3906C198.749 41.778 199.786 40.2151 200.749 38.7265C201.712 37.238 202.576 35.8239 203.341 34.5587C204.082 33.2686 204.674 32.3011 205.118 31.6312L205.044 31.6064Z" fill="#73366A"/>
<path d="M65.838 85.0694C65.838 86.6076 65.3196 88.1457 64.2828 89.6839C63.246 91.222 61.8882 92.6857 60.1849 94.1246C58.5062 95.5635 56.5807 96.928 54.433 98.2677C52.2853 99.6074 50.0635 100.848 47.7677 101.989C45.4719 103.13 43.2007 104.197 40.9296 105.165C38.6585 106.132 36.6095 107 34.7334 107.769C35.0296 108.34 35.3999 109.184 35.8689 110.35C36.338 111.491 36.9551 112.756 37.6957 114.096C38.4363 115.46 39.325 116.849 40.3371 118.288C41.3493 119.727 42.4848 121.017 43.7685 122.208C45.0522 123.399 46.5087 124.342 48.1133 125.086C49.7179 125.83 51.4706 126.202 53.3221 126.202C54.1861 126.202 54.9267 126.128 55.5192 125.979C56.1363 125.83 56.6054 125.681 56.9757 125.508C57.346 125.309 57.6669 125.086 57.9384 124.813C57.4447 126.351 56.6547 127.691 55.5685 128.882C54.7045 129.899 53.4949 130.842 51.9644 131.71C50.4338 132.578 48.4342 133.025 45.9903 133.025C44.1882 133.025 42.5589 132.628 41.053 131.834C39.5472 131.04 38.1894 129.998 36.9551 128.683C35.7455 127.368 34.6346 125.93 33.6719 124.317C32.7091 122.704 31.8698 121.092 31.1539 119.454C30.438 117.817 29.8702 116.254 29.4258 114.741C28.9815 113.227 28.6359 111.937 28.3396 110.871C27.5497 112.458 26.7597 114.096 25.9698 115.783C25.1798 117.47 24.4886 119.082 23.8714 120.645C23.2543 122.208 22.7605 123.622 22.3656 124.912C21.9706 126.178 21.7731 127.22 21.7731 127.989C21.7731 128.658 21.8472 129.204 21.9953 129.676C22.1434 130.147 22.2668 130.494 22.3656 130.792C22.4643 131.065 22.5137 131.263 22.4643 131.363C22.4149 131.462 22.1928 131.511 21.7731 131.511C20.9831 131.511 20.0451 131.412 18.9836 131.214C17.922 131.015 16.8605 130.643 15.8731 130.147C14.861 129.626 13.9969 128.981 13.281 128.162C12.5651 127.344 12.1948 126.302 12.1948 125.012C12.1948 124.044 12.5404 122.63 13.207 120.769C13.8982 118.909 14.7869 116.775 15.8978 114.418C17.0087 112.037 18.243 109.556 19.6007 106.951C20.9584 104.346 22.3162 101.815 23.6246 99.3593C24.9576 96.9032 26.2166 94.6456 27.4016 92.5369C28.5865 90.4529 29.4999 88.7907 30.1417 87.5503C31.1539 85.6152 31.4995 84.0026 31.2279 82.7126C30.9317 81.4225 30.0677 80.8023 28.6359 80.8023C26.4882 80.8023 24.143 81.5466 21.6497 83.0599C19.1317 84.5732 16.8112 86.3843 14.6635 88.493C12.5158 90.6266 10.7137 92.8098 9.28186 95.0922C7.85006 97.3746 7.13416 99.2849 7.13416 100.798C5.77642 100.699 4.59148 100.426 3.57934 99.9547C2.64127 99.6074 1.80193 99.0616 1.06135 98.3421C0.320761 97.6227 -0.0742188 96.6303 -0.0742188 95.3403C-0.0742188 93.951 0.641682 92.2143 2.07348 90.0808C3.50528 87.9472 5.38144 85.8881 7.72663 83.9034C10.0471 81.9187 12.6639 80.1821 15.5769 78.7184C18.4898 77.2546 21.3781 76.5352 24.2417 76.5352C29.179 76.5352 32.9313 77.4531 35.4739 79.289C38.0166 81.1248 39.3003 83.432 39.3003 86.1858C39.3003 86.8556 39.1275 87.7488 38.7572 88.9148C38.3869 90.056 37.8932 91.3708 37.2514 92.8346C36.6095 94.2983 35.8689 95.8612 35.0543 97.5482C34.2396 99.2352 33.3509 100.972 32.4129 102.758C34.215 101.89 36.4367 100.699 39.0781 99.1856C41.7196 97.6723 44.2869 95.9109 46.7802 93.9013C49.2489 91.8918 51.3719 89.659 53.1246 87.2278C54.8773 84.7965 55.766 82.266 55.766 79.6115C55.766 78.9913 55.6673 78.4703 55.4945 78.0485C55.3217 77.6268 55.1242 77.2794 54.902 77.0065C54.6058 76.7088 54.2849 76.4359 53.9393 76.2375C56.161 76.1382 58.1359 76.3615 59.8639 76.9321C61.3698 77.4531 62.7276 78.3214 63.9619 79.537C65.1715 80.7527 65.7886 82.6381 65.7886 85.1438L65.838 85.0694Z" fill="#73366A"/>
<path d="M99.929 106.703C99.929 107.472 99.5093 108.39 98.6453 109.456C97.7813 110.523 96.5963 111.565 95.0905 112.558C93.5846 113.55 91.8072 114.468 89.7582 115.287C87.7093 116.105 85.5122 116.651 83.1423 116.974C82.2783 118.462 81.2662 119.851 80.1306 121.191C78.9704 122.531 77.736 123.697 76.4277 124.714C75.0946 125.731 73.6875 126.55 72.1816 127.12C70.6758 127.716 69.0712 128.013 67.3432 128.013C66.1829 128.013 64.8745 127.666 63.3687 126.971C61.8628 126.277 60.4804 125.334 59.2214 124.094C57.9624 122.878 56.9502 121.389 56.1603 119.678C55.3703 117.966 55.0741 116.08 55.2963 114.046C55.5184 111.342 56.1603 108.588 57.2218 105.81C58.308 103.031 59.6657 100.5 61.3691 98.2677C63.0477 96.0101 64.998 94.1742 67.2444 92.7353C69.4662 91.2964 71.8607 90.5769 74.4528 90.5769C76.4524 90.5769 78.2792 90.8746 79.8838 91.4701C81.4884 92.0655 82.8955 92.8345 84.0804 93.8021C85.2654 94.7696 86.2034 95.9108 86.87 97.2257C87.5612 98.5406 87.9561 99.905 88.1043 101.319C88.2524 102.609 88.1043 104.197 87.6846 106.157C87.2649 108.117 86.5737 110.151 85.6356 112.285C87.7093 111.739 89.6348 110.771 91.3875 109.407C93.1403 108.067 94.3746 106.206 95.0905 103.85C96.0285 103.899 96.8432 104.048 97.5591 104.321C98.1269 104.519 98.67 104.817 99.1637 105.165C99.6574 105.512 99.929 106.033 99.929 106.703ZM65.7139 123.796C66.8001 123.796 67.985 123.101 69.318 121.687C70.6511 120.273 71.9595 118.512 73.2432 116.353C72.0829 116.056 71.367 115.634 71.0955 115.088C70.7992 114.542 70.7992 114.046 71.0461 113.6C71.2929 113.153 71.762 112.781 72.4532 112.533C73.1444 112.285 73.9097 112.26 74.7737 112.458C75.0699 112.558 75.2674 112.607 75.4155 112.607C76.5017 110.498 77.4151 108.365 78.2051 106.206C78.9951 104.023 79.5381 102.063 79.8838 100.302C80.2047 98.5406 80.2294 97.1017 79.9331 95.9604C79.6369 94.8441 78.9704 94.2735 77.8842 94.2735C76.798 94.2735 75.5637 94.9929 74.1072 96.4566C72.6754 97.9203 71.2683 99.7314 69.9105 101.939C68.5528 104.147 67.3185 106.504 66.2076 109.035C65.0967 111.565 64.2821 113.922 63.739 116.13C63.1959 118.313 63.0477 120.149 63.3193 121.613C63.5662 123.076 64.3808 123.796 65.7385 123.796H65.7139Z" fill="#73366A"/>
<path d="M133.182 103.031C134.614 103.031 135.824 103.378 136.836 104.073C137.848 104.768 138.268 105.388 138.12 105.958C137.971 106.256 137.552 107.025 136.885 108.266C136.194 109.481 135.33 110.945 134.244 112.607C133.158 114.269 131.948 116.031 130.59 117.867C129.232 119.702 127.801 121.414 126.344 122.952C124.863 124.515 123.431 125.805 121.999 126.823C120.568 127.84 119.21 128.361 117.901 128.361C116.544 128.361 115.309 128.013 114.199 127.319C113.088 126.624 112.125 125.756 111.36 124.714C110.57 123.672 109.953 122.555 109.533 121.389C109.113 120.223 108.891 119.132 108.891 118.164C108.891 117.346 109.187 116.204 109.755 114.741C110.323 113.277 111.039 111.689 111.903 109.953C112.767 108.216 113.705 106.455 114.692 104.668C115.704 102.882 116.618 101.245 117.482 99.7562C115.68 101.542 113.705 103.701 111.557 106.231C109.409 108.762 107.385 111.392 105.534 114.12C103.658 116.849 102.127 119.554 100.917 122.183C99.7077 124.813 99.0906 127.12 99.0906 129.13C96.227 129.13 93.8571 128.534 91.9809 127.368C90.1048 126.202 89.1914 124.317 89.1914 121.762C89.1914 119.975 89.4383 117.966 89.9567 115.733C90.4504 113.5 91.1169 111.267 91.9563 108.985C92.7709 106.703 93.709 104.495 94.7458 102.311C95.7826 100.128 96.8688 98.218 97.9797 96.531C99.0906 94.844 100.177 93.4796 101.214 92.4624C102.25 91.4452 103.164 90.9243 103.954 90.9243C104.892 90.9243 105.706 91.1475 106.422 91.6189C107.138 92.0903 107.78 92.5864 108.348 93.157C109.064 93.8269 109.681 94.5711 110.175 95.365C108.817 96.7047 107.484 98.2925 106.2 100.153C104.917 102.014 103.732 103.998 102.695 106.058C101.658 108.117 100.769 110.201 100.053 112.26C99.3374 114.319 98.8437 116.204 98.5475 117.891C100.127 115.138 102.053 112.185 104.349 109.035C106.645 105.884 108.965 102.981 111.335 100.302C113.705 97.6226 115.927 95.3898 118 93.6036C120.074 91.8174 121.703 90.9243 122.839 90.9243C123.407 90.9243 124.024 91.0979 124.666 91.4452C125.307 91.7926 125.9 92.3135 126.443 92.9834C126.986 93.6532 127.43 94.4223 127.776 95.3154C128.146 96.2085 128.319 97.1761 128.319 98.1932C128.319 98.7142 127.949 99.6818 127.233 101.145C126.517 102.609 125.653 104.271 124.641 106.182C123.629 108.067 122.567 110.052 121.407 112.111C120.247 114.17 119.284 116.08 118.494 117.792C117.704 119.504 117.161 120.918 116.815 122.01C116.494 123.101 116.642 123.647 117.309 123.647C117.976 123.647 118.716 123.225 119.63 122.382C120.518 121.538 121.506 120.472 122.542 119.157C123.579 117.842 124.641 116.403 125.727 114.79C126.813 113.178 127.825 111.615 128.788 110.126C129.751 108.613 130.615 107.224 131.38 105.934C132.121 104.668 132.713 103.676 133.158 103.031H133.182Z" fill="#73366A"/>
<path d="M172.014 71.4246C172.953 71.4246 173.767 71.6478 174.483 72.1192C175.199 72.5906 175.841 73.0867 176.409 73.6574C177.124 74.3272 177.742 75.0715 178.235 75.8901C176.433 77.8748 174.532 80.455 172.483 83.6057C170.435 86.7564 168.46 90.1056 166.509 93.6532C164.584 97.2009 162.732 100.773 161.029 104.321C159.301 107.869 157.869 111.094 156.734 113.972C155.573 116.849 154.833 119.206 154.463 120.993C154.092 122.779 154.24 123.672 154.882 123.672C155.672 123.672 156.536 123.25 157.474 122.407C158.412 121.563 159.375 120.496 160.387 119.182C161.399 117.867 162.387 116.428 163.35 114.815C164.312 113.203 165.226 111.64 166.09 110.151C166.954 108.638 167.694 107.248 168.361 105.958C169.003 104.693 169.496 103.701 169.867 103.056C171.299 103.056 172.508 103.403 173.471 104.098C174.434 104.792 174.853 105.413 174.705 105.983C174.557 106.281 174.162 107.05 173.52 108.29C172.878 109.531 172.039 110.97 171.052 112.632C170.04 114.294 168.929 116.056 167.67 117.891C166.411 119.727 165.102 121.439 163.745 122.977C162.387 124.54 160.98 125.83 159.548 126.847C158.116 127.865 156.783 128.386 155.573 128.386C154.142 128.386 152.858 128.013 151.747 127.269C150.636 126.525 149.673 125.632 148.908 124.59C148.118 123.548 147.526 122.431 147.131 121.265C146.736 120.099 146.538 119.082 146.538 118.264C144.539 120.869 142.613 123.076 140.786 124.888C138.96 126.699 137.355 127.616 135.997 127.616C135.059 127.616 134.096 127.418 133.084 127.046C132.072 126.674 131.159 126.078 130.344 125.284C129.529 124.491 128.838 123.498 128.295 122.283C127.752 121.092 127.48 119.653 127.48 118.015C127.48 116.849 127.703 115.386 128.122 113.6C128.542 111.813 129.184 109.953 129.998 107.918C130.813 105.909 131.85 103.874 133.06 101.865C134.269 99.8555 135.676 98.0196 137.256 96.407C138.836 94.7945 140.564 93.4796 142.465 92.4624C144.366 91.4453 146.39 90.9243 148.538 90.9243C150.044 90.9243 151.5 91.1972 152.883 91.7678C154.29 92.3384 155.524 92.9338 156.586 93.6036C158.091 90.7506 159.597 87.972 161.103 85.3175C162.609 82.6629 164.065 80.3061 165.448 78.2718C166.855 76.2375 168.114 74.5753 169.274 73.3348C170.41 72.0944 171.323 71.4494 171.965 71.4494L172.014 71.4246ZM151.475 104.172C152.043 103.006 152.611 101.815 153.154 100.6C153.697 99.4089 154.29 98.1933 154.932 96.9528C154.561 96.6055 154.092 96.3078 153.475 96.0597C152.858 95.8364 152.142 95.7124 151.278 95.7124C150.192 95.7124 149.056 96.3574 147.847 97.6723C146.637 98.9871 145.427 100.6 144.242 102.535C143.057 104.47 141.947 106.579 140.91 108.811C139.873 111.069 139.034 113.153 138.392 115.113C137.75 117.073 137.38 118.685 137.256 119.975C137.157 121.29 137.429 121.935 138.071 121.935C138.441 121.935 139.083 121.365 140.07 120.248C141.033 119.132 142.169 117.693 143.452 115.956C144.736 114.22 146.094 112.309 147.476 110.201C148.883 108.117 150.216 106.082 151.5 104.147L151.475 104.172Z" fill="#73366A"/>
<path d="M192.454 105.934C192.306 106.231 191.911 107.025 191.269 108.315C190.627 109.581 189.788 111.094 188.801 112.806C187.788 114.517 186.678 116.329 185.419 118.264C184.16 120.174 182.851 121.935 181.493 123.548C180.136 125.16 178.729 126.475 177.297 127.542C175.865 128.584 174.532 129.105 173.322 129.105C171.89 129.105 170.607 128.708 169.496 127.889C168.385 127.071 167.447 126.078 166.657 124.888C165.867 123.722 165.275 122.506 164.88 121.241C164.485 120 164.287 118.958 164.287 118.14C164.287 117.569 164.509 116.502 164.978 114.914C165.447 113.327 166.065 111.54 166.854 109.556C167.644 107.571 168.533 105.462 169.545 103.254C170.557 101.071 171.57 99.0368 172.606 97.2009C173.643 95.3651 174.68 93.8517 175.717 92.6857C176.754 91.5197 177.716 90.9243 178.556 90.9243C179.494 90.9243 180.308 91.1476 181.024 91.6189C181.74 92.0903 182.382 92.5865 182.95 93.1571C183.666 93.8269 184.283 94.5712 184.777 95.3651C183.616 96.4318 182.456 97.8956 181.271 99.7066C180.086 101.518 178.975 103.478 177.939 105.586C176.902 107.695 175.939 109.804 175.026 111.937C174.137 114.096 173.421 116.031 172.927 117.767C172.434 119.504 172.113 120.918 172.014 122.01C171.915 123.101 172.113 123.647 172.606 123.647C173.248 123.647 174.013 123.225 174.877 122.382C175.742 121.538 176.655 120.472 177.618 119.157C178.58 117.842 179.568 116.403 180.58 114.79C181.592 113.178 182.53 111.615 183.419 110.077C184.308 108.539 185.122 107.124 185.838 105.859C186.554 104.594 187.122 103.626 187.566 103.031C188.998 103.031 190.208 103.378 191.17 104.073C192.133 104.768 192.553 105.388 192.405 105.958L192.454 105.934ZM188.48 88.5178C186.826 88.3194 185.369 87.972 184.061 87.5255C182.975 87.1285 181.987 86.5828 181.098 85.8881C180.21 85.1935 179.79 84.3252 179.864 83.2336C179.938 82.5141 180.284 81.4721 180.876 80.1325C181.493 78.7928 182.283 77.4283 183.246 76.1134C184.209 74.7986 185.27 73.6574 186.431 72.6898C187.566 71.7471 188.702 71.3253 189.763 71.4246C190.849 71.5238 191.812 71.7719 192.676 72.1936C193.54 72.5906 194.256 73.062 194.824 73.5829C195.392 74.1039 195.811 74.5753 196.058 75.0467C196.305 75.518 196.429 75.8654 196.429 76.1134C196.429 76.3119 196.009 76.8329 195.194 77.6764C194.38 78.5199 193.466 79.5122 192.503 80.6783C191.541 81.8195 190.627 83.0847 189.813 84.474C188.998 85.8385 188.529 87.203 188.48 88.5426V88.5178Z" fill="#73366A"/>
<path d="M221.163 85.8384C219.658 85.7888 218.078 85.7392 216.424 85.6896C214.992 85.64 213.387 85.5904 211.635 85.5656C209.882 85.5656 208.055 85.5655 206.204 85.6152C204.624 88.1705 203.019 90.8746 201.415 93.7525C199.81 96.6055 198.304 99.4585 196.946 102.311C195.589 105.14 194.354 107.844 193.243 110.399C192.132 112.954 191.244 115.212 190.553 117.172C189.861 119.132 189.466 120.72 189.318 121.886C189.17 123.052 189.392 123.647 189.96 123.647C190.75 123.647 191.614 123.225 192.552 122.382C193.49 121.538 194.428 120.472 195.391 119.157C196.354 117.842 197.341 116.403 198.353 114.79C199.366 113.178 200.279 111.615 201.094 110.126C201.908 108.613 202.649 107.224 203.291 105.934C203.933 104.668 204.426 103.676 204.797 103.031C206.228 103.031 207.438 103.378 208.45 104.073C209.462 104.768 209.857 105.388 209.635 105.958C209.561 106.256 209.215 107.05 208.549 108.34C207.907 109.605 207.068 111.119 206.08 112.83C205.068 114.542 203.933 116.353 202.649 118.288C201.365 120.199 200.032 121.96 198.674 123.573C197.317 125.185 195.934 126.5 194.527 127.567C193.12 128.609 191.812 129.13 190.602 129.13C189.17 129.13 187.886 128.733 186.726 127.914C185.566 127.095 184.603 126.103 183.813 124.912C183.023 123.746 182.431 122.531 182.036 121.265C181.641 120.025 181.443 118.983 181.443 118.164C181.443 117.147 181.863 115.46 182.727 113.103C183.591 110.746 184.702 108.067 186.06 105.04C187.417 102.039 188.973 98.8383 190.676 95.4643C192.404 92.0903 194.107 88.8899 195.835 85.8881C193.688 85.9377 191.565 86.0121 189.491 86.0865C187.417 86.161 185.443 86.285 183.566 86.4339C183.344 85.8136 183.27 85.243 183.344 84.6724C183.418 84.2011 183.566 83.7545 183.838 83.3328C184.085 82.911 184.603 82.6133 185.393 82.4396C185.961 82.3404 187.442 82.2164 189.812 82.0923C192.182 81.9683 195.021 81.8442 198.304 81.745C200.18 78.7431 201.859 76.2622 203.414 74.352C204.945 72.4417 206.13 71.4742 206.92 71.4742C207.858 71.4742 208.697 71.6974 209.438 72.1688C210.203 72.6402 210.845 73.1363 211.437 73.7069C212.079 74.3768 212.696 75.121 213.264 75.9397C211.906 77.4779 210.425 79.3385 208.845 81.5465H215.14C217.263 81.5465 219.485 81.6458 221.855 81.8442C222.423 82.3156 222.793 82.7622 222.941 83.2335C223.089 83.6305 223.064 84.077 222.892 84.5484C222.719 84.995 222.126 85.4663 221.114 85.9129L221.163 85.8384Z" fill="#73366A"/>
<path d="M246.023 106.703C246.023 107.472 245.603 108.39 244.739 109.456C243.875 110.523 242.69 111.565 241.184 112.558C239.678 113.55 237.901 114.468 235.852 115.287C233.803 116.105 231.606 116.651 229.236 116.974C228.372 118.462 227.36 119.851 226.224 121.191C225.064 122.531 223.83 123.697 222.521 124.714C221.188 125.731 219.781 126.55 218.275 127.12C216.77 127.716 215.165 128.013 213.437 128.013C212.277 128.013 210.968 127.666 209.462 126.971C207.957 126.277 206.574 125.334 205.315 124.094C204.056 122.878 203.044 121.389 202.254 119.678C201.464 117.966 201.168 116.08 201.39 114.046C201.612 111.342 202.254 108.588 203.316 105.81C204.402 103.031 205.759 100.5 207.463 98.2677C209.141 96.0101 211.092 94.1742 213.338 92.7353C215.56 91.2964 217.954 90.5769 220.547 90.5769C222.546 90.5769 224.373 90.8746 225.977 91.4701C227.582 92.0655 228.989 92.8345 230.174 93.8021C231.359 94.7696 232.297 95.9108 232.964 97.2257C233.655 98.5406 234.05 99.905 234.198 101.319C234.346 102.609 234.198 104.197 233.778 106.157C233.359 108.117 232.667 110.151 231.729 112.285C233.803 111.739 235.729 110.771 237.481 109.407C239.234 108.067 240.468 106.206 241.184 103.85C242.122 103.899 242.937 104.048 243.653 104.321C244.221 104.519 244.764 104.817 245.257 105.165C245.751 105.512 246.023 106.033 246.023 106.703ZM211.808 123.796C212.894 123.796 214.079 123.101 215.412 121.687C216.745 120.273 218.053 118.512 219.337 116.353C218.177 116.056 217.461 115.634 217.189 115.088C216.893 114.542 216.893 114.046 217.14 113.6C217.387 113.153 217.856 112.781 218.547 112.533C219.238 112.285 220.003 112.26 220.867 112.458C221.164 112.558 221.361 112.607 221.509 112.607C222.595 110.498 223.509 108.365 224.299 106.206C225.089 104.023 225.632 102.063 225.977 100.302C226.298 98.5406 226.323 97.1017 226.027 95.9604C225.731 94.8441 225.064 94.2735 223.978 94.2735C222.892 94.2735 221.657 94.9929 220.201 96.4566C218.769 97.9203 217.362 99.7314 216.004 101.939C214.647 104.147 213.412 106.504 212.301 109.035C211.19 111.565 210.376 113.922 209.833 116.13C209.29 118.313 209.141 120.149 209.413 121.613C209.66 123.076 210.475 123.796 211.832 123.796H211.808Z" fill="#73366A"/>
<path d="M270.66 103.031C272.091 103.031 273.301 103.378 274.264 104.073C275.227 104.768 275.646 105.388 275.498 105.958C275.35 106.256 274.93 107.025 274.264 108.266C273.573 109.481 272.709 110.945 271.622 112.607C270.536 114.269 269.327 116.031 267.969 117.867C266.611 119.702 265.204 121.414 263.772 122.952C262.34 124.515 260.909 125.805 259.477 126.823C258.045 127.84 256.687 128.361 255.379 128.361C254.021 128.361 252.787 128.013 251.676 127.319C250.565 126.624 249.602 125.756 248.763 124.714C247.948 123.672 247.306 122.555 246.887 121.389C246.467 120.223 246.245 119.132 246.245 118.164C246.245 117.048 246.813 115.51 247.973 113.575C249.109 111.64 250.368 109.58 251.676 107.397C253.009 105.214 254.243 103.105 255.379 101.071C256.514 99.0367 257.107 97.3249 257.107 95.9356C257.107 95.0673 256.761 94.2486 256.095 93.4548C255.404 92.6609 254.688 91.7926 253.898 90.8002C253.108 93.1074 252.096 95.5139 250.886 98.0444C249.676 100.575 248.17 103.552 246.368 106.976C245.011 107.025 243.999 106.852 243.357 106.479C242.715 106.107 242.27 105.661 242.073 105.14C241.851 104.519 241.826 103.825 241.974 103.081C243.85 99.657 245.406 96.5062 246.665 93.6532C247.924 90.8002 248.936 88.2945 249.726 86.1362C250.664 83.6801 251.404 81.4225 251.997 79.3882C252.565 77.5523 253.478 76.2871 254.688 75.5924C255.897 74.8978 257.132 74.5504 258.341 74.5504C259.353 74.5504 260.217 74.7737 260.983 75.1955C261.748 75.642 262.316 76.1134 262.76 76.6592C263.18 77.1802 263.476 77.726 263.624 78.2718C263.772 78.8176 263.649 79.1897 263.303 79.3882C262.933 79.5866 262.488 79.9588 261.97 80.4549C261.427 80.9759 260.909 81.5465 260.415 82.2164C259.921 82.8862 259.477 83.6057 259.131 84.3995C258.761 85.1934 258.588 85.9625 258.588 86.7316C258.588 88.2201 258.958 89.3613 259.724 90.18C260.464 90.9987 261.328 91.7429 262.242 92.4376C263.18 93.1322 264.019 93.9013 264.76 94.7448C265.5 95.5883 265.895 96.7543 265.895 98.2429C265.895 99.1112 265.525 100.352 264.809 101.964C264.093 103.577 263.204 105.338 262.168 107.224C261.131 109.109 260.045 111.044 258.934 112.979C257.823 114.914 256.86 116.676 256.021 118.264C255.206 119.851 254.614 121.141 254.293 122.183C253.972 123.201 254.12 123.721 254.786 123.721C255.453 123.721 256.193 123.3 257.107 122.456C257.996 121.613 258.983 120.546 260.02 119.231C261.057 117.916 262.143 116.477 263.254 114.865C264.365 113.252 265.401 111.689 266.364 110.201C267.327 108.687 268.191 107.298 268.956 106.008C269.697 104.743 270.289 103.75 270.734 103.105L270.66 103.031Z" fill="#73366A"/>
<path d="M293.026 105.934C292.878 106.231 292.483 107.025 291.841 108.315C291.2 109.58 290.36 111.094 289.373 112.806C288.361 114.517 287.25 116.328 285.991 118.264C284.732 120.174 283.423 121.935 282.066 123.548C280.708 125.16 279.301 126.475 277.869 127.542C276.437 128.584 275.104 129.105 273.895 129.105C272.463 129.105 271.179 128.708 270.068 127.889C268.957 127.071 268.019 126.078 267.229 124.888C266.439 123.722 265.847 122.506 265.452 121.241C265.057 120 264.859 118.958 264.859 118.14C264.859 117.569 265.082 116.502 265.551 114.914C266.02 113.327 266.637 111.54 267.427 109.556C268.217 107.571 269.105 105.462 270.118 103.254C271.13 101.071 272.142 99.0367 273.179 97.2009C274.215 95.365 275.252 93.8517 276.289 92.6857C277.326 91.5197 278.289 90.9243 279.128 90.9243C280.066 90.9243 280.881 91.1475 281.597 91.6189C282.313 92.0903 282.954 92.5865 283.522 93.1571C284.238 93.8269 284.855 94.5712 285.349 95.365C284.189 96.4318 283.028 97.8955 281.843 99.7066C280.659 101.518 279.548 103.478 278.511 105.586C277.474 107.695 276.511 109.804 275.598 111.937C274.709 114.096 273.993 116.031 273.5 117.767C273.006 119.504 272.685 120.918 272.586 122.01C272.487 123.101 272.685 123.647 273.179 123.647C273.82 123.647 274.586 123.225 275.45 122.382C276.314 121.538 277.227 120.472 278.19 119.157C279.153 117.842 280.14 116.403 281.152 114.79C282.164 113.178 283.102 111.615 283.991 110.077C284.88 108.539 285.695 107.124 286.41 105.859C287.126 104.594 287.694 103.626 288.138 103.031C289.57 103.031 290.78 103.378 291.743 104.073C292.705 104.768 293.125 105.388 292.977 105.958L293.026 105.934ZM289.052 88.5178C287.398 88.3193 285.941 87.972 284.633 87.5255C283.547 87.1285 282.559 86.5827 281.671 85.8881C280.782 85.1934 280.362 84.3251 280.436 83.2335C280.51 82.5141 280.856 81.4721 281.449 80.1324C282.066 78.7928 282.856 77.4283 283.818 76.1134C284.781 74.7985 285.843 73.6573 287.003 72.6898C288.138 71.7471 289.274 71.3253 290.336 71.4245C291.422 71.5238 292.385 71.7719 293.249 72.1936C294.113 72.5906 294.828 73.0619 295.396 73.5829C295.964 74.1039 296.384 74.5753 296.631 75.0466C296.877 75.518 297.001 75.8653 297.001 76.1134C297.001 76.3119 296.581 76.8329 295.767 77.6764C294.952 78.5199 294.038 79.5122 293.076 80.6782C292.113 81.8194 291.2 83.0847 290.385 84.474C289.57 85.8385 289.101 87.2029 289.052 88.5426V88.5178Z" fill="#73366A"/>
<g clip-path="url(#clip1_490_1246)">
<path d="M273.304 33.9114C267.692 34.1518 262.484 35.2092 257.561 35.4735C252.663 35.7859 248.073 35.3053 244.339 33.575C242.889 33.0703 241.724 32.085 240.511 31.3881C239.369 30.523 238.323 29.5617 237.443 28.5764C237.015 28.0957 236.587 27.5911 236.254 27.1104C236.04 26.798 236.04 26.774 235.992 26.6779C235.945 26.5817 235.921 26.4856 235.874 26.3895C235.755 26.029 235.731 25.7166 235.945 25.4763C236.135 25.2119 236.468 25.2119 236.658 25.2119C236.777 25.2119 236.849 25.2119 236.944 25.236C237.039 25.236 236.944 25.26 237.182 25.236L237.776 25.1879C240.867 24.9956 243.674 24.9716 245.695 24.9235C247.716 24.8755 249.143 24.8755 249.999 24.8034C251.997 24.6592 255.088 24.491 259.083 23.5057C261.105 22.977 262.912 22.4002 265.123 21.3909C266.217 20.8622 267.478 20.1652 268.667 18.9877C269.88 17.7861 270.712 16.2 271.092 14.662C271.83 11.5619 271.164 8.72611 269.808 6.49115C268.429 4.20813 266.241 2.79025 264.22 2.21349C262.175 1.63673 260.486 1.82898 259.297 2.18946C258.108 2.54993 257.395 3.0546 257.062 3.46314C256.729 3.89572 257.49 3.84765 259.178 3.91975C260.011 3.99184 261.105 4.13603 262.317 4.6407C263.506 5.14537 264.814 6.01051 265.694 7.42839C266.574 8.82224 266.907 10.6487 266.526 12.3068C266.336 13.1239 265.956 13.8929 265.456 14.4697C264.957 15.0224 264.244 15.431 263.316 15.7915C261.485 16.4643 259.155 16.969 256.895 17.2814C254.613 17.5938 252.211 17.6659 249.571 17.6659C246.456 17.6659 243.269 17.7861 240.13 17.9543L237.705 18.1225L236.468 18.2427L235.778 18.3388L234.78 18.5071C232.116 18.9877 229.619 20.1172 228.644 22.5204C228.026 24.2266 228.145 26.029 228.93 27.8074C229.619 29.5377 231.141 31.4602 231.807 32.2052C233.567 34.1758 235.422 35.882 237.657 37.2519C243.055 40.7605 248.881 41.6016 253.376 41.6016C257.942 41.6016 261.58 41.0249 264.41 40.5682C268.667 39.8713 272.281 39.1744 275.278 39.0542C278.274 38.9101 280.486 39.3186 282.293 40.0876C283.981 40.8566 285.741 42.3706 286.93 43.7164C288.119 45.0862 288.832 46.3119 289.047 47.3452C289.379 48.4987 289.094 49.7244 288.5 50.8298C287.905 51.9113 287.192 52.8245 286.645 53.5695C287.857 52.9927 288.999 52.2237 289.926 51.1903C290.854 50.181 291.425 48.8112 291.496 47.3933C291.591 44.5335 290.021 42.0102 288.333 39.8713C287.477 38.7899 286.502 37.8046 285.337 36.9875C284.29 36.0262 282.935 35.5216 281.651 34.9208C278.964 33.9835 276.11 33.8153 273.28 33.8393L273.304 33.9114Z" fill="#73366A"/>
<path d="M286.518 31.2593C287.405 28.4793 286.681 25.4166 285.677 23.202C284.65 20.8932 283.436 19.1263 282.386 17.642C281.312 16.2049 280.541 15.3803 280.191 15.1448C279.771 14.8385 279.117 14.4851 278.277 14.1082C277.436 13.7076 276.479 13.4249 275.452 13.1893C274.425 12.9773 273.468 12.8831 272.534 12.9537C271.624 13.0244 270.97 13.2836 270.55 13.7312C270.153 14.1788 270.666 15.027 271.904 16.3463C273.188 17.7127 274.635 19.2205 276.222 20.9168C277.81 22.6602 279.257 24.4507 280.214 26.1705C281.172 27.9139 281.288 28.974 281.335 29.5395C281.405 29.9871 281.358 31.9661 281.615 33.0262C281.732 33.5917 281.872 34.0628 282.012 34.4398C282.082 34.5811 282.175 34.7696 282.269 34.8403C282.339 34.8638 282.269 34.7932 282.456 34.9345C282.642 35.0523 282.806 35.1701 282.969 35.3115C283.319 35.6177 283.413 35.6177 283.599 35.8533C283.786 36.1596 283.786 36.0654 283.81 36.2303C283.81 36.2067 283.81 36.2303 283.856 36.0654C283.903 35.9005 283.996 35.8298 284.16 35.6177C284.276 35.4764 284.206 35.5706 284.16 35.6177C284.113 35.6413 284.066 35.6649 284.02 35.6884C283.623 35.8298 283.133 35.8062 282.666 35.8062C282.806 36.1125 282.946 36.3952 283.203 36.6544C283.413 36.9371 283.996 37.0784 284.3 36.7721C284.86 36.2538 285.07 35.6177 285.327 35.0288C285.794 33.8037 286.144 32.555 286.518 31.2828V31.2593Z" fill="#73366A"/>
<path d="M266.24 51.119C260.506 50.4109 255.296 49.514 250.776 48.2159C246.208 46.9649 242.568 45.4308 239.737 43.8022C236.906 42.1972 235.336 40.9698 234.765 40.6394C234.051 40.191 233.076 39.6245 232.315 38.8928C231.553 38.1847 230.887 37.217 230.53 35.7773C230.15 34.3611 230.126 32.7325 230.221 31.1747C230.316 29.6406 230.364 28.5076 230.078 27.8703C229.936 27.5635 229.507 27.6815 228.841 28.3188C228.175 28.9797 227.247 30.1362 226.462 32.0952C225.677 34.007 225.154 36.5089 225.772 39.2941C226.296 42.1028 228.556 44.8643 231.054 46.6109C235.955 50.1513 241.641 52.488 247.445 53.9277C253.274 55.3675 257.699 55.8395 260.768 56.1228C265.36 56.4768 269.118 56.3824 272.068 55.9576C274.995 55.5563 277.326 54.9898 279.063 54.4234C281.014 53.7389 282.394 52.96 283.25 52.0631C277.683 52.0395 271.997 51.8507 266.264 51.119H266.24Z" fill="#73366A"/>
<path d="M244.671 53.0016C241.139 52.3212 237.776 52.0162 234.772 51.7816C231.769 51.547 229.175 51.3359 227.781 50.7728C226.46 50.1159 226.892 49.8578 226.772 49.8109C226.724 49.7875 226.676 49.8109 226.58 49.6936C226.46 49.5998 226.364 49.5294 226.316 49.5529C226.172 49.5529 225.883 49.459 225.739 49.0836C225.547 48.7552 225.955 47.7698 226.34 46.9956C226.748 46.1745 227.06 45.4707 227.012 44.8841C227.036 44.3211 225.811 43.9222 223.361 45.0718C222.231 45.6349 220.694 46.8314 220.189 48.8256C219.901 49.7875 219.949 50.8901 220.285 52.0162C220.646 53.1424 221.102 54.0808 222.015 55.0192C223.793 57.0134 226.532 57.5999 228.478 57.8345C230.52 58.0457 232.298 58.0457 234.028 58.0457C237.463 58.0222 239.818 58.1161 241.499 58.163C243.974 58.2099 245.992 58.2099 247.674 57.9753C249.332 57.7407 250.749 57.5061 251.83 57.1542C253.08 56.7319 254.089 56.2157 254.833 55.5119C251.566 54.5735 248.226 53.7054 244.695 53.0251L244.671 53.0016Z" fill="#73366A"/>
<path d="M254.852 16.4824C256.176 16.1116 257.432 15.6248 258.598 14.999C259.765 14.3732 260.797 13.6084 261.604 12.8203C262.434 12.0554 262.815 11.4065 262.928 11.1747C263.017 10.8502 263.085 10.3866 263.085 9.76083C263.085 9.1582 262.95 8.48604 262.703 7.83706C262.457 7.18808 262.075 6.65499 261.627 6.21461C261.178 5.77423 260.64 5.5888 260.101 5.54245C259.54 5.51927 259.047 6.00601 258.486 6.81723C257.925 7.62846 257.297 8.41651 256.557 9.13502C255.817 9.83036 255.099 10.3403 254.381 10.7575C253.663 11.1747 253.08 11.4296 252.721 11.6846C252.205 12.0554 251.824 12.519 251.645 13.168C251.443 13.817 251.286 14.4428 251.218 15.0917C251.151 15.8566 251.151 16.6678 251.218 17.5486C252.362 17.1778 253.551 16.8533 254.852 16.5056V16.4824Z" fill="#73366A"/>
</g>
</g>
<defs>
<clipPath id="clip0_490_1246">
<rect width="297" height="133" fill="white"/>
</clipPath>
<clipPath id="clip1_490_1246">
<rect width="86.1667" height="67.4236" fill="white" transform="translate(220 -9.23611)"/>
</clipPath>
</defs>
</svg>
