<svg width="20" height="20" viewBox="0 0 20 20" fill="none" xmlns="http://www.w3.org/2000/svg">
<path fill-rule="evenodd" clip-rule="evenodd" d="M0 4.00049C0 2.93962 0.421427 1.92221 1.17157 1.17206C1.92172 0.421916 2.93913 0.000488281 4 0.000488281H16C17.0609 0.000488281 18.0783 0.421916 18.8284 1.17206C19.5786 1.92221 20 2.93962 20 4.00049V16.0005C20 17.0614 19.5786 18.0788 18.8284 18.8289C18.0783 19.5791 17.0609 20.0005 16 20.0005H4C2.93913 20.0005 1.92172 19.5791 1.17157 18.8289C0.421427 18.0788 0 17.0614 0 16.0005V4.00049ZM4 2.00049C3.46957 2.00049 2.96086 2.2112 2.58579 2.58627C2.21071 2.96135 2 3.47006 2 4.00049V16.0005C2 16.5309 2.21071 17.0396 2.58579 17.4147C2.96086 17.7898 3.46957 18.0005 4 18.0005H16C16.5304 18.0005 17.0391 17.7898 17.4142 17.4147C17.7893 17.0396 18 16.5309 18 16.0005V4.00049C18 3.47006 17.7893 2.96135 17.4142 2.58627C17.0391 2.2112 16.5304 2.00049 16 2.00049H4ZM10 7.00049C9.20435 7.00049 8.44129 7.31656 7.87868 7.87917C7.31607 8.44178 7 9.20484 7 10.0005C7 10.7961 7.31607 11.5592 7.87868 12.1218C8.44129 12.6844 9.20435 13.0005 10 13.0005C10.7956 13.0005 11.5587 12.6844 12.1213 12.1218C12.6839 11.5592 13 10.7961 13 10.0005C13 9.20484 12.6839 8.44178 12.1213 7.87917C11.5587 7.31656 10.7956 7.00049 10 7.00049ZM5 10.0005C5 8.67441 5.52678 7.40264 6.46447 6.46495C7.40215 5.52727 8.67392 5.00049 10 5.00049C11.3261 5.00049 12.5979 5.52727 13.5355 6.46495C14.4732 7.40264 15 8.67441 15 10.0005C15 11.3266 14.4732 12.5983 13.5355 13.536C12.5979 14.4737 11.3261 15.0005 10 15.0005C8.67392 15.0005 7.40215 14.4737 6.46447 13.536C5.52678 12.5983 5 11.3266 5 10.0005ZM15.5 6.00049C15.8978 6.00049 16.2794 5.84245 16.5607 5.56115C16.842 5.27984 17 4.89831 17 4.50049C17 4.10266 16.842 3.72113 16.5607 3.43983C16.2794 3.15852 15.8978 3.00049 15.5 3.00049C15.1022 3.00049 14.7206 3.15852 14.4393 3.43983C14.158 3.72113 14 4.10266 14 4.50049C14 4.89831 14.158 5.27984 14.4393 5.56115C14.7206 5.84245 15.1022 6.00049 15.5 6.00049Z" fill="#FFFCF9"/>
</svg>
